<svg height="150" width="400"><g><g height="150" width="400"><g transform="translate(50,15)"><g transform="translate(0,120)" class="x axis"><g transform="translate(40.7459807073955,0)" style="opacity: 1;" class="tick"><line shape-rendering="crispEdges" fill="none" stroke="#ccc" x2="0" y2="16"></line><text shape-rendering="crispEdges" fill="#666" font-size="10px" x="6" y="6" style="text-anchor: start;" dy=".71em">2014</text></g><path shape-rendering="crispEdges" fill="none" stroke="#ccc" d="M0,0V0H300V0" class="domain"></path></g><g class="y axis"><g transform="translate(0,120)" style="opacity: 1;" class="tick"><line shape-rendering="crispEdges" fill="none" stroke="#ccc" y2="0" x2="-6"></line><text shape-rendering="crispEdges" fill="#666" font-size="10px" y="0" x="-9" style="text-anchor: end;" dy=".32em">0%</text></g><g transform="translate(0,111.27272727272727)" style="opacity: 1;" class="tick"><line shape-rendering="crispEdges" fill="none" stroke="#ccc" y2="0" x2="-6"></line><text shape-rendering="crispEdges" fill="#666" font-size="10px" y="0" x="-9" style="text-anchor: end;" dy=".32em">2%</text></g><g transform="translate(0,102.54545454545453)" style="opacity: 1;" class="tick"><line shape-rendering="crispEdges" fill="none" stroke="#ccc" y2="0" x2="-6"></line><text shape-rendering="crispEdges" fill="#666" font-size="10px" y="0" x="-9" style="text-anchor: end;" dy=".32em">4%</text></g><g transform="translate(0,93.81818181818183)" style="opacity: 1;" class="tick"><line shape-rendering="crispEdges" fill="none" stroke="#ccc" y2="0" x2="-6"></line><text shape-rendering="crispEdges" fill="#666" font-size="10px" y="0" x="-9" style="text-anchor: end;" dy=".32em">6%</text></g><g transform="translate(0,85.0909090909091)" style="opacity: 1;" class="tick"><line shape-rendering="crispEdges" fill="none" stroke="#ccc" y2="0" x2="-6"></line><text shape-rendering="crispEdges" fill="#666" font-size="10px" y="0" x="-9" style="text-anchor: end;" dy=".32em">8%</text></g><g transform="translate(0,76.36363636363636)" style="opacity: 1;" class="tick"><line shape-rendering="crispEdges" fill="none" stroke="#ccc" y2="0" x2="-6"></line><text shape-rendering="crispEdges" fill="#666" font-size="10px" y="0" x="-9" style="text-anchor: end;" dy=".32em">10%</text></g><g transform="translate(0,67.63636363636364)" style="opacity: 1;" class="tick"><line shape-rendering="crispEdges" fill="none" stroke="#ccc" y2="0" x2="-6"></line><text shape-rendering="crispEdges" fill="#666" font-size="10px" y="0" x="-9" style="text-anchor: end;" dy=".32em">12%</text></g><g transform="translate(0,58.9090909090909)" style="opacity: 1;" class="tick"><line shape-rendering="crispEdges" fill="none" stroke="#ccc" y2="0" x2="-6"></line><text shape-rendering="crispEdges" fill="#666" font-size="10px" y="0" x="-9" style="text-anchor: end;" dy=".32em">14%</text></g><g transform="translate(0,50.18181818181819)" style="opacity: 1;" class="tick"><line shape-rendering="crispEdges" fill="none" stroke="#ccc" y2="0" x2="-6"></line><text shape-rendering="crispEdges" fill="#666" font-size="10px" y="0" x="-9" style="text-anchor: end;" dy=".32em">16%</text></g><g transform="translate(0,41.45454545454547)" style="opacity: 1;" class="tick"><line shape-rendering="crispEdges" fill="none" stroke="#ccc" y2="0" x2="-6"></line><text shape-rendering="crispEdges" fill="#666" font-size="10px" y="0" x="-9" style="text-anchor: end;" dy=".32em">18%</text></g><g transform="translate(0,32.72727272727273)" style="opacity: 1;" class="tick"><line shape-rendering="crispEdges" fill="none" stroke="#ccc" y2="0" x2="-6"></line><text shape-rendering="crispEdges" fill="#666" font-size="10px" y="0" x="-9" style="text-anchor: end;" dy=".32em">20%</text></g><g transform="translate(0,24.000000000000007)" style="opacity: 1;" class="tick"><line shape-rendering="crispEdges" fill="none" stroke="#ccc" y2="0" x2="-6"></line><text shape-rendering="crispEdges" fill="#666" font-size="10px" y="0" x="-9" style="text-anchor: end;" dy=".32em">22%</text></g><g transform="translate(0,15.272727272727291)" style="opacity: 1;" class="tick"><line shape-rendering="crispEdges" fill="none" stroke="#ccc" y2="0" x2="-6"></line><text shape-rendering="crispEdges" fill="#666" font-size="10px" y="0" x="-9" style="text-anchor: end;" dy=".32em">24%</text></g><g transform="translate(0,6.545454545454548)" style="opacity: 1;" class="tick"><line shape-rendering="crispEdges" fill="none" stroke="#ccc" y2="0" x2="-6"></line><text shape-rendering="crispEdges" fill="#666" font-size="10px" y="0" x="-9" style="text-anchor: end;" dy=".32em">26%</text></g><path shape-rendering="crispEdges" fill="none" stroke="#ccc" d="M-6,0H0V120H-6" class="domain"></path><text shape-rendering="crispEdges" fill="#666" font-size="10px" style="text-anchor: end;" dy=".71em" y="6" transform="rotate(-90)">Rate</text></g><g transform="translate(305,0)" class="y axis"><g transform="translate(0,120)" style="opacity: 1;" class="tick"><line shape-rendering="crispEdges" fill="none" stroke="#ccc" y2="0" x2="6"></line><text shape-rendering="crispEdges" fill="#666" font-size="10px" y="0" x="9" style="text-anchor: start;" dy=".32em">0%</text></g><g transform="translate(0,111.27272727272727)" style="opacity: 1;" class="tick"><line shape-rendering="crispEdges" fill="none" stroke="#ccc" y2="0" x2="6"></line><text shape-rendering="crispEdges" fill="#666" font-size="10px" y="0" x="9" style="text-anchor: start;" dy=".32em">2%</text></g><g transform="translate(0,102.54545454545453)" style="opacity: 1;" class="tick"><line shape-rendering="crispEdges" fill="none" stroke="#ccc" y2="0" x2="6"></line><text shape-rendering="crispEdges" fill="#666" font-size="10px" y="0" x="9" style="text-anchor: start;" dy=".32em">4%</text></g><g transform="translate(0,93.81818181818183)" style="opacity: 1;" class="tick"><line shape-rendering="crispEdges" fill="none" stroke="#ccc" y2="0" x2="6"></line><text shape-rendering="crispEdges" fill="#666" font-size="10px" y="0" x="9" style="text-anchor: start;" dy=".32em">6%</text></g><g transform="translate(0,85.0909090909091)" style="opacity: 1;" class="tick"><line shape-rendering="crispEdges" fill="none" stroke="#ccc" y2="0" x2="6"></line><text shape-rendering="crispEdges" fill="#666" font-size="10px" y="0" x="9" style="text-anchor: start;" dy=".32em">8%</text></g><g transform="translate(0,76.36363636363636)" style="opacity: 1;" class="tick"><line shape-rendering="crispEdges" fill="none" stroke="#ccc" y2="0" x2="6"></line><text shape-rendering="crispEdges" fill="#666" font-size="10px" y="0" x="9" style="text-anchor: start;" dy=".32em">10%</text></g><g transform="translate(0,67.63636363636364)" style="opacity: 1;" class="tick"><line shape-rendering="crispEdges" fill="none" stroke="#ccc" y2="0" x2="6"></line><text shape-rendering="crispEdges" fill="#666" font-size="10px" y="0" x="9" style="text-anchor: start;" dy=".32em">12%</text></g><g transform="translate(0,58.9090909090909)" style="opacity: 1;" class="tick"><line shape-rendering="crispEdges" fill="none" stroke="#ccc" y2="0" x2="6"></line><text shape-rendering="crispEdges" fill="#666" font-size="10px" y="0" x="9" style="text-anchor: start;" dy=".32em">14%</text></g><g transform="translate(0,50.18181818181819)" style="opacity: 1;" class="tick"><line shape-rendering="crispEdges" fill="none" stroke="#ccc" y2="0" x2="6"></line><text shape-rendering="crispEdges" fill="#666" font-size="10px" y="0" x="9" style="text-anchor: start;" dy=".32em">16%</text></g><g transform="translate(0,41.45454545454547)" style="opacity: 1;" class="tick"><line shape-rendering="crispEdges" fill="none" stroke="#ccc" y2="0" x2="6"></line><text shape-rendering="crispEdges" fill="#666" font-size="10px" y="0" x="9" style="text-anchor: start;" dy=".32em">18%</text></g><g transform="translate(0,32.72727272727273)" style="opacity: 1;" class="tick"><line shape-rendering="crispEdges" fill="none" stroke="#ccc" y2="0" x2="6"></line><text shape-rendering="crispEdges" fill="#666" font-size="10px" y="0" x="9" style="text-anchor: start;" dy=".32em">20%</text></g><g transform="translate(0,24.000000000000007)" style="opacity: 1;" class="tick"><line shape-rendering="crispEdges" fill="none" stroke="#ccc" y2="0" x2="6"></line><text shape-rendering="crispEdges" fill="#666" font-size="10px" y="0" x="9" style="text-anchor: start;" dy=".32em">22%</text></g><g transform="translate(0,15.272727272727291)" style="opacity: 1;" class="tick"><line shape-rendering="crispEdges" fill="none" stroke="#ccc" y2="0" x2="6"></line><text shape-rendering="crispEdges" fill="#666" font-size="10px" y="0" x="9" style="text-anchor: start;" dy=".32em">24%</text></g><g transform="translate(0,6.545454545454548)" style="opacity: 1;" class="tick"><line shape-rendering="crispEdges" fill="none" stroke="#ccc" y2="0" x2="6"></line><text shape-rendering="crispEdges" fill="#666" font-size="10px" y="0" x="9" style="text-anchor: start;" dy=".32em">26%</text></g><path shape-rendering="crispEdges" fill="none" stroke="#ccc" d="M6,0H0V120H6" class="domain"></path></g><path title="ostatni-strany" style="fill: rgb(136, 136, 136); fill-opacity: 0.2;" id="ostatni-strany-band" class="area band" d="M0,111.92518199573863Q50.5620578778135,108.76119273792614,58.340836012861736,108.77833140980114C70.00900321543409,108.80403941761364,70.98135048231511,111.65815929066052,77.78778135048232,112.09656871448864S94.97170418006432,111.86519664417614,103.7170418006431,111.70106090198864S127.34469453376205,110.92718394886364,136.09003215434083,111.00233043323864S154.24051446945336,112.13282359730114,162.0192926045016,112.20203746448864S170.44630225080385,112.09930031516336,187.94855305466237,111.46375621448864S261.89324758842446,108.36395541104403,278.7009646302251,107.96507679332386Q289.90610932475886,107.69915771484375,300,108.8045654296875L300,117.65411931818181Q289.90610932475886,116.93117897727272,278.7009646302251,117.04048295454545C261.89324758842446,117.20443892045455,205.45080385852089,118.37610085227271,187.94855305466237,118.74715909090908S169.79807073954984,119.56278409090909,162.0192926045016,119.51420454545455S144.8353697749196,118.51534090909091,136.09003215434083,118.42329545454545S112.46237942122188,118.790625,103.7170418006431,118.90056818181819S84.59421221864953,119.38156960227273,77.78778135048232,119.15625S70.00900321543409,117.3703125,58.340836012861736,117.3984375Q50.5620578778135,117.4171875,0,119.34375Z"></path><path title="zeleni" style="fill: green; fill-opacity: 0.2;" id="zeleni-band" class="area band" d="M0,105.68061967329545Q50.5620578778135,108.75092551491477,58.340836012861736,108.77833140980114C70.00900321543409,108.81944025213069,70.98135048231511,106.82412664240057,77.78778135048232,105.9546786221591S94.97170418006432,103.40259288441051,103.7170418006431,102.98201127485795S127.34469453376205,102.22822931463068,136.09003215434083,103.15080122514205S154.24051446945336,108.26671808416194,162.0192926045016,109.13249067826705S170.44630225080385,108.6757607199929,187.94855305466237,108.92261851917614Q199.61672025723473,109.0871903852983,278.7009646302251,110.77820933948864L278.7009646302251,118.28693181818181Q199.61672025723473,117.74680397727272,187.94855305466237,117.73082386363636C170.44630225080385,117.70685369318181,169.79807073954984,118.59614701704545,162.0192926045016,118.12713068181819S144.8353697749196,115.18045099431818,136.09003215434083,114.60404829545455S112.46237942122188,114.07718394886365,103.7170418006431,114.28444602272728S84.59421221864953,115.51869673295454,77.78778135048232,115.98579545454545S70.00900321543409,117.36519886363637,58.340836012861736,117.3984375Q50.5620578778135,117.42059659090908,0,116.20738636363636Z"></path><path title="zadna" style="fill: rgb(136, 136, 136); fill-opacity: 0.2;" id="zadna-band" class="area band" d="M0,77.0303067294034Q50.5620578778135,79.95148148970172,58.340836012861736,79.73883611505683C70.00900321543409,79.4198680530895,70.98135048231511,76.08514792702414,77.78778135048232,74.90385298295453S94.97170418006432,71.05469304865056,103.7170418006431,71.86353648792613S127.34469453376205,80.6488985928622,136.09003215434083,80.29614257812499S154.24051446945336,68.10324263139205,162.0192926045016,69.51182972301137S170.44630225080385,90.67299083362929,187.94855305466237,89.68672318892048S261.89324758842446,65.46031660600146,278.7009646302251,62.93671209161935Q289.90610932475886,61.25430908203128,300,72.86269309303974L300,93.15527343750004Q289.90610932475886,84.30194424715911,278.7009646302251,85.5412819602273C261.89324758842446,87.40028852982957,205.45080385852089,104.74696821732954,187.94855305466237,105.54865056818181S169.79807073954984,91.86700994318184,162.0192926045016,90.88583096590911S144.8353697749196,98.83275479403407,136.09003215434083,99.00745738636363S112.46237942122188,92.75092329545457,103.7170418006431,92.05051491477275S84.59421221864953,93.47126686789774,77.78778135048232,94.33806818181819S70.00900321543409,97.45677379261363,58.340836012861736,97.82919034090908Q50.5620578778135,98.07746803977271,0,96.82084517045455Z"></path><path title="nevolic" style="fill: rgb(136, 136, 136); fill-opacity: 0.2;" id="nevolic-band" class="area band" d="M0,3.747935901988635Q50.5620578778135,1.068030894886354,58.340836012861736,2.453713156960222C70.00900321543409,4.532236550071024,70.98135048231511,16.682641046697487,77.78778135048232,17.604758522727316S94.97170418006432,9.855102539062498,103.7170418006431,8.601162997159083S127.34469453376205,9.959302867542617,136.09003215434083,9.24516157670455S154.24051446945336,5.239819335937493,162.0192926045016,3.8402210582386376S170.44630225080385,1.3568115234375646,187.94855305466237,-0.08549360795448102S261.89324758842446,-7.182535067471585,278.7009646302251,-5.775146484375Q289.90610932475886,-4.836887428977277,300,9.297096946022751L300,39.43945312499999Q289.90610932475886,27.040056818181817,278.7009646302251,26.190074573863637C261.89324758842446,24.915101207386368,205.45080385852089,29.580522017045457,187.94855305466237,30.939630681818194S169.79807073954984,33.94418501420463,162.0192926045016,35.25079900568189S144.8353697749196,39.15568625710222,136.09003215434083,39.650390624999936S112.46237942122188,37.557022372159096,103.7170418006431,38.54882812500002S84.59421221864953,47.17431418678983,77.78778135048232,46.262428977272776S70.00900321543409,34.102960759943194,58.340836012861736,32.46959339488636Q50.5620578778135,31.380681818181802,0,35.37331321022721Z"></path><path title="cssd" style="fill: orange; fill-opacity: 0.2;" id="cssd-band" class="area band" d="M0,31.819668856534136Q50.5620578778135,26.503710937500045,58.340836012861736,25.082219904119363C70.00900321543409,22.94998335404834,70.98135048231511,17.684529252485834,77.78778135048232,17.604758522727316S94.97170418006432,23.049063387784166,103.7170418006431,24.55041503906257S127.34469453376205,26.00319879705258,136.09003215434083,27.613769531250007S154.24051446945336,34.98777132901276,162.0192926045016,35.28755326704542S170.44630225080385,30.392739590731487,187.94855305466237,29.612315784801083S261.89324758842446,30.012218128551062,278.7009646302251,30.08472789417607Q289.90610932475886,30.133067737926073,300,30.095714222301126L300,57.74480646306814Q289.90610932475886,58.16055575284089,278.7009646302251,58.10835404829544C261.89324758842446,58.03005149147726,205.45080385852089,56.53378684303976,187.94855305466237,57.222789417613626S169.79807073954984,62.91178311434658,162.0192926045016,62.70170454545454S144.8353697749196,57.33296564275569,136.09003215434083,55.822265625S112.46237942122188,54.06434659090901,103.7170418006431,52.63037109374993S84.59421221864953,46.26834161931823,77.78778135048232,46.262428977272776S70.00900321543409,50.52572354403404,58.340836012861736,52.590953480113576Q50.5620578778135,53.967773437499936,0,60.030628551136374Z"></path><path title="ods" style="fill: blue; fill-opacity: 0.2;" id="ods-band" class="area band" d="M0,99.82397460937503Q50.5620578778135,99.10535555752841,58.340836012861736,98.03849653764205C70.00900321543409,96.43820800781249,70.98135048231511,89.63086769797586,77.78778135048232,89.15538441051137S94.97170418006432,94.12859885475855,103.7170418006431,94.86860795454548S127.34469453376205,94.04083806818183,136.09003215434083,94.0887784090909S154.24051446945336,96.16530928178265,162.0192926045016,95.18821022727272S170.44630225080385,88.67338256835939,187.94855305466237,87.57478471235797S261.89324758842446,86.68577603426847,278.7009646302251,87.8642245205966Q289.90610932475886,88.64985684481535,300,95.43110795454547L300,109.67897727272727Q289.90610932475886,105.20949928977274,278.7009646302251,104.65429687500001C261.89324758842446,103.82149325284092,205.45080385852089,103.35535333806818,187.94855305466237,104.126953125S169.79807073954984,109.13168501420456,162.0192926045016,109.79829545454547S144.8353697749196,108.6809659090909,136.09003215434083,108.57102272727272S112.46237942122188,109.62576349431818,103.7170418006431,109.0653409090909S84.59421221864953,104.53812144886365,77.78778135048232,104.83487215909092S70.00900321543409,109.86674360795453,58.340836012861736,111.04367897727272Q50.5620578778135,111.82830255681817,0,112.68110795454545Z"></path><path title="pirati" style="fill: black; fill-opacity: 0.2;" id="pirati-band" class="area band" d="M0,105.68061967329545Q50.5620578778135,108.53808038884944,58.340836012861736,108.77833140980114C70.00900321543409,109.1387079412287,70.98135048231511,107.64472045898438,77.78778135048232,108.0831298828125S94.97170418006432,111.26318081942472,103.7170418006431,111.70106090198864S127.34469453376205,111.38761596679689,136.09003215434083,111.00233043323864S154.24051446945336,109.44444746537643,162.0192926045016,109.13249067826705S170.44630225080385,108.6757607199929,187.94855305466237,108.92261851917614S261.89324758842446,110.79591730291193,278.7009646302251,110.77820933948864Q289.90610932475886,110.76640403053977,300,108.8045654296875L300,117.65411931818181Q289.90610932475886,118.27926136363635,278.7009646302251,118.28693181818181C261.89324758842446,118.29843749999999,205.45080385852089,117.7547940340909,187.94855305466237,117.73082386363636S169.79807073954984,118.02325994318183,162.0192926045016,118.12713068181819S144.8353697749196,118.30727982954545,136.09003215434083,118.42329545454545S112.46237942122188,119.12908380681819,103.7170418006431,118.90056818181819S84.59421221864953,117.12517755681819,77.78778135048232,116.89985795454545S70.00900321543409,117.50230823863636,58.340836012861736,117.3984375Q50.5620578778135,117.3291903409091,0,116.20738636363636Z"></path><path title="kscm" style="fill: red; fill-opacity: 0.2;" id="kscm-band" class="area band" d="M0,55.3961292613637Q50.5620578778135,67.7835438121449,58.340836012861736,68.52449174360797C70.00900321543409,69.63591364080256,70.98135048231511,62.88153409090911,77.78778135048232,62.805608575994334S94.97170418006432,66.66146018288352,103.7170418006431,68.01832164417613S127.34469453376205,71.25263671874997,136.09003215434083,71.85135165127838S154.24051446945336,72.93022405450992,162.0192926045016,72.00975452769885S170.44630225080385,65.70757723721596,187.94855305466237,65.71488813920459S261.89324758842446,71.5525734641335,278.7009646302251,72.05849387428975Q289.90610932475886,72.39577414772725,300,69.08769087357955L300,89.9845525568182Q289.90610932475886,92.91562500000002,278.7009646302251,92.6662819602273C261.89324758842446,92.2922674005682,205.45080385852089,87.46395596590911,187.94855305466237,87.49112215909092S169.79807073954984,92.11594016335228,162.0192926045016,92.84738991477273S144.8353697749196,92.91645063920454,136.09003215434083,92.36745383522727S112.46237942122188,90.32879083806819,103.7170418006431,89.18741122159092S84.59421221864953,84.74914772727276,77.78778135048232,84.75825639204548S70.00900321543409,89.99181019176139,58.340836012861736,89.24813565340912Q50.5620578778135,88.75235262784093,0,79.80042613636367Z"></path><path title="usvit" style="fill: pink; fill-opacity: 0.2;" id="usvit-band" class="area band" d="M0,91.39143510298295Q50.5620578778135,97.1590742631392,58.340836012861736,98.03849653764205C70.00900321543409,99.35762994939631,70.98135048231511,100.34757634943182,77.78778135048232,100.18565784801136S94.97170418006432,96.51426835493606,103.7170418006431,96.95903986150567S127.34469453376205,101.7642616965554,136.09003215434083,103.15080122514205S154.24051446945336,105.33686412464489,162.0192926045016,106.20263671875S170.44630225080385,108.23628262606535,187.94855305466237,108.92261851917614S261.89324758842446,111.16271584250711,278.7009646302251,110.77820933948864Q289.90610932475886,110.52187167080966,300,106.35924183238636L300,116.4971590909091Q289.90610932475886,118.16356534090909,278.7009646302251,118.28693181818181C261.89324758842446,118.4719815340909,205.45080385852089,117.98394886363636,187.94855305466237,117.73082386363636S169.79807073954984,117.06844815340908,162.0192926045016,116.59943181818181S144.8353697749196,115.54479758522727,136.09003215434083,114.60404829545455S112.46237942122188,110.6526455965909,103.7170418006431,110.32776988636363S84.59421221864953,112.33082386363637,77.78778135048232,112.43821022727273S70.00900321543409,111.85315163352271,58.340836012861736,111.04367897727272Q50.5620578778135,110.50403053977271,0,107.04172585227273Z"></path><path title="top-09" style="fill: rgb(136, 0, 136); fill-opacity: 0.2;" id="top-09-band" class="area band" d="M0,82.36646617542615Q50.5620578778135,75.45847611860796,58.340836012861736,74.8916015625C70.00900321543409,74.04128972833807,70.98135048231511,76.02265070134943,77.78778135048232,76.6977206143466S94.97170418006432,78.85230435458097,103.7170418006431,79.39206764914772S127.34469453376205,79.49822554154828,136.09003215434083,80.29614257812499S154.24051446945336,85.43031005859372,162.0192926045016,84.71151455965907S170.44630225080385,75.03126609108665,187.94855305466237,75.50417258522728S261.89324758842446,87.32562477805398,278.7009646302251,87.8642245205966Q289.90610932475886,88.22329101562501,300,79.09483753551136L300,97.72478693181813Q289.90610932475886,104.90774147727274,278.7009646302251,104.65429687500001C261.89324758842446,104.27412997159092,205.45080385852089,95.52232776988636,187.94855305466237,95.1903409090909S169.79807073954984,101.86848366477273,162.0192926045016,102.44105113636364S144.8353697749196,99.69476207386363,136.09003215434083,99.00745738636363S112.46237942122188,98.36918501420453,103.7170418006431,97.85901988636363S84.59421221864953,96.16518110795454,77.78778135048232,95.6063565340909S70.00900321543409,93.34442471590907,58.340836012861736,94.1335227272727Q50.5620578778135,94.65958806818179,0,100.86700994318181Z"></path><path title="ano" style="fill: rgb(0, 187, 187); fill-opacity: 0.2;" id="ano-band" class="area band" d="M0,31.819668856534136Q50.5620578778135,29.922040349786926,58.340836012861736,29.656261097301126C70.00900321543409,29.257592218572423,70.98135048231511,29.92775324041191,77.78778135048232,29.161876331676126S94.97170418006432,27.2279729669745,103.7170418006431,24.55041503906257S127.34469453376205,13.71322631835939,136.09003215434083,11.31149014559659S154.24051446945336,7.4781954678622,162.0192926045016,8.538840553977254S170.44630225080385,16.393142977627814,187.94855305466237,18.382457386363612S261.89324758842446,22.58796719637783,278.7009646302251,21.800936612215903Q289.90610932475886,21.276249556107953,300,13.135586825284097L300,42.79927201704548Q289.90610932475886,50.31570490056828,278.7009646302251,50.779208096591006C261.89324758842446,51.4744628906251,205.45080385852089,49.131751598011434,187.94855305466237,47.434303977272776S169.79807073954984,40.35655850497156,162.0192926045016,39.46289062499997S144.8353697749196,39.501396040483016,136.09003215434083,41.47651811079551S112.46237942122188,50.3928755326704,103.7170418006431,52.63037109374993S84.59421221864953,55.80217063210221,77.78778135048232,56.39315518465904S70.00900321543409,56.02464710582384,58.340836012861736,56.57026811079544Q50.5620578778135,56.93401544744317,0,60.030628551136374Z"></path><path title="kdu-csl" style="fill: yellow; fill-opacity: 0.2;" id="kdu-csl-band" class="area band" d="M0,91.39143510298295Q50.5620578778135,92.60810435901989,58.340836012861736,92.93025346235797C70.00900321543409,93.41347711736508,70.98135048231511,94.32217296253553,77.78778135048232,94.61292613636365S94.97170418006432,94.9472301136364,103.7170418006431,94.86860795454548S127.34469453376205,94.44057561700994,136.09003215434083,94.0887784090909S154.24051446945336,91.94818392666905,162.0192926045016,92.52329323508523S170.44630225080385,97.53269098455256,187.94855305466237,97.92284046519886S261.89324758842446,96.41473888050427,278.7009646302251,95.12428977272728Q289.90610932475886,94.26399036754262,300,89.31984641335228L300,105.25035511363639Q289.90610932475886,108.975,278.7009646302251,109.57670454545453C261.89324758842446,110.47926136363634,205.45080385852089,111.50526455965908,187.94855305466237,111.26740056818181S169.79807073954984,108.39540127840908,162.0192926045016,107.99094460227272S144.8353697749196,108.40986328125,136.09003215434083,108.57102272727272S112.46237942122188,109.04744318181818,103.7170418006431,109.0653409090909S84.59421221864953,108.9104669744318,77.78778135048232,108.69034090909089S70.00900321543409,107.84512606534089,58.340836012861736,107.59783380681817Q50.5620578778135,107.43297230113636,0,107.04172585227273Z"></path><path title="svobodni" style="fill: rgb(0, 102, 0); fill-opacity: 0.2;" id="svobodni-band" class="area band" d="M162.0192926045016,112.20203746448864Q174.15048231511253,111.54681285511364,187.94855305466237,111.46375621448864Q201.7466237942122,111.38069957386364,300,111.37147105823864L300,118.67897727272728Q201.7466237942122,118.66363636363636,187.94855305466237,118.74715909090908Q174.15048231511253,118.8306818181818,162.0192926045016,119.51420454545455Z"></path><circle data-tooltip="Ostatní1 %18.11.2013" style="stroke: rgb(136, 136, 136); stroke-width: 3px; fill: none;" r="3" cy="115.63636363636364" cx="0"></circle><circle data-tooltip="Ostatní1,5 %20.1.2014" style="stroke: rgb(136, 136, 136); stroke-width: 3px; fill: none;" r="3" cy="113.45454545454545" cx="58.340836012861736"></circle><circle data-tooltip="Ostatní1 %10.2.2014" style="stroke: rgb(136, 136, 136); stroke-width: 3px; fill: none;" r="3" cy="115.63636363636364" cx="77.78778135048232"></circle><circle data-tooltip="Ostatní1 %10.3.2014" style="stroke: rgb(136, 136, 136); stroke-width: 3px; fill: none;" r="3" cy="115.63636363636364" cx="103.7170418006431"></circle><circle data-tooltip="Ostatní1 %14.4.2014" style="stroke: rgb(136, 136, 136); stroke-width: 3px; fill: none;" r="3" cy="115.63636363636364" cx="136.09003215434083"></circle><circle data-tooltip="Ostatní1 %12.5.2014" style="stroke: rgb(136, 136, 136); stroke-width: 3px; fill: none;" r="3" cy="115.63636363636364" cx="162.0192926045016"></circle><circle data-tooltip="Ostatní1 %9.6.2014" style="stroke: rgb(136, 136, 136); stroke-width: 3px; fill: none;" r="3" cy="115.63636363636364" cx="187.94855305466237"></circle><circle data-tooltip="Ostatní1,5 %15.9.2014" style="stroke: rgb(136, 136, 136); stroke-width: 3px; fill: none;" r="3" cy="113.45454545454545" cx="278.7009646302251"></circle><circle data-tooltip="Ostatní1,5 %8.10.2014" style="stroke: rgb(136, 136, 136); stroke-width: 3px; fill: none;" r="3" cy="113.45454545454545" cx="300"></circle><circle data-tooltip="Zelení2 %18.11.2013" style="stroke: green; stroke-width: 3px; fill: none;" r="3" cy="111.27272727272727" cx="0"></circle><circle data-tooltip="Zelení1,5 %20.1.2014" style="stroke: green; stroke-width: 3px; fill: none;" r="3" cy="113.45454545454545" cx="58.340836012861736"></circle><circle data-tooltip="Zelení2 %10.2.2014" style="stroke: green; stroke-width: 3px; fill: none;" r="3" cy="111.27272727272727" cx="77.78778135048232"></circle><circle data-tooltip="Zelení2,5 %10.3.2014" style="stroke: green; stroke-width: 3px; fill: none;" r="3" cy="109.0909090909091" cx="103.7170418006431"></circle><circle data-tooltip="Zelení2,5 %14.4.2014" style="stroke: green; stroke-width: 3px; fill: none;" r="3" cy="109.0909090909091" cx="136.09003215434083"></circle><circle data-tooltip="Zelení1,5 %12.5.2014" style="stroke: green; stroke-width: 3px; fill: none;" r="3" cy="113.45454545454545" cx="162.0192926045016"></circle><circle data-tooltip="Zelení1,5 %9.6.2014" style="stroke: green; stroke-width: 3px; fill: none;" r="3" cy="113.45454545454545" cx="187.94855305466237"></circle><circle data-tooltip="Zelení1 %15.9.2014" style="stroke: green; stroke-width: 3px; fill: none;" r="3" cy="115.63636363636364" cx="278.7009646302251"></circle><circle data-tooltip="žádná7,5 %18.11.2013" style="stroke: rgb(136, 136, 136); stroke-width: 3px; fill: none;" r="3" cy="87.27272727272728" cx="0"></circle><circle data-tooltip="žádná7 %20.1.2014" style="stroke: rgb(136, 136, 136); stroke-width: 3px; fill: none;" r="3" cy="89.45454545454544" cx="58.340836012861736"></circle><circle data-tooltip="žádná8 %10.2.2014" style="stroke: rgb(136, 136, 136); stroke-width: 3px; fill: none;" r="3" cy="85.0909090909091" cx="77.78778135048232"></circle><circle data-tooltip="žádná8,5 %10.3.2014" style="stroke: rgb(136, 136, 136); stroke-width: 3px; fill: none;" r="3" cy="82.9090909090909" cx="103.7170418006431"></circle><circle data-tooltip="žádná7 %14.4.2014" style="stroke: rgb(136, 136, 136); stroke-width: 3px; fill: none;" r="3" cy="89.45454545454544" cx="136.09003215434083"></circle><circle data-tooltip="žádná9 %12.5.2014" style="stroke: rgb(136, 136, 136); stroke-width: 3px; fill: none;" r="3" cy="80.72727272727275" cx="162.0192926045016"></circle><circle data-tooltip="žádná5 %9.6.2014" style="stroke: rgb(136, 136, 136); stroke-width: 3px; fill: none;" r="3" cy="98.18181818181817" cx="187.94855305466237"></circle><circle data-tooltip="žádná10,5 %15.9.2014" style="stroke: rgb(136, 136, 136); stroke-width: 3px; fill: none;" r="3" cy="74.18181818181819" cx="278.7009646302251"></circle><circle data-tooltip="žádná8,5 %8.10.2014" style="stroke: rgb(136, 136, 136); stroke-width: 3px; fill: none;" r="3" cy="82.9090909090909" cx="300"></circle><circle data-tooltip="nevolič23 %18.11.2013" style="stroke: rgb(136, 136, 136); stroke-width: 3px; fill: none;" r="3" cy="19.636363636363644" cx="0"></circle><circle data-tooltip="nevolič23,5 %20.1.2014" style="stroke: rgb(136, 136, 136); stroke-width: 3px; fill: none;" r="3" cy="17.454545454545475" cx="58.340836012861736"></circle><circle data-tooltip="nevolič20 %10.2.2014" style="stroke: rgb(136, 136, 136); stroke-width: 3px; fill: none;" r="3" cy="32.72727272727273" cx="77.78778135048232"></circle><circle data-tooltip="nevolič22 %10.3.2014" style="stroke: rgb(136, 136, 136); stroke-width: 3px; fill: none;" r="3" cy="24.000000000000007" cx="103.7170418006431"></circle><circle data-tooltip="nevolič22 %14.4.2014" style="stroke: rgb(136, 136, 136); stroke-width: 3px; fill: none;" r="3" cy="24.000000000000007" cx="136.09003215434083"></circle><circle data-tooltip="nevolič23 %12.5.2014" style="stroke: rgb(136, 136, 136); stroke-width: 3px; fill: none;" r="3" cy="19.636363636363644" cx="162.0192926045016"></circle><circle data-tooltip="nevolič24 %9.6.2014" style="stroke: rgb(136, 136, 136); stroke-width: 3px; fill: none;" r="3" cy="15.272727272727291" cx="187.94855305466237"></circle><circle data-tooltip="nevolič25 %15.9.2014" style="stroke: rgb(136, 136, 136); stroke-width: 3px; fill: none;" r="3" cy="10.909090909090914" cx="278.7009646302251"></circle><circle data-tooltip="nevolič22 %8.10.2014" style="stroke: rgb(136, 136, 136); stroke-width: 3px; fill: none;" r="3" cy="24.000000000000007" cx="300"></circle><circle data-tooltip="ČSSD17 %18.11.2013" style="stroke: orange; stroke-width: 3px; fill: none;" r="3" cy="45.81818181818182" cx="0"></circle><circle data-tooltip="ČSSD18,5 %20.1.2014" style="stroke: orange; stroke-width: 3px; fill: none;" r="3" cy="39.27272727272729" cx="58.340836012861736"></circle><circle data-tooltip="ČSSD20 %10.2.2014" style="stroke: orange; stroke-width: 3px; fill: none;" r="3" cy="32.72727272727273" cx="77.78778135048232"></circle><circle data-tooltip="ČSSD18,5 %10.3.2014" style="stroke: orange; stroke-width: 3px; fill: none;" r="3" cy="39.27272727272729" cx="103.7170418006431"></circle><circle data-tooltip="ČSSD18 %14.4.2014" style="stroke: orange; stroke-width: 3px; fill: none;" r="3" cy="41.45454545454547" cx="136.09003215434083"></circle><circle data-tooltip="ČSSD16 %12.5.2014" style="stroke: orange; stroke-width: 3px; fill: none;" r="3" cy="50.18181818181819" cx="162.0192926045016"></circle><circle data-tooltip="ČSSD17,5 %9.6.2014" style="stroke: orange; stroke-width: 3px; fill: none;" r="3" cy="43.636363636363654" cx="187.94855305466237"></circle><circle data-tooltip="ČSSD17,5 %15.9.2014" style="stroke: orange; stroke-width: 3px; fill: none;" r="3" cy="43.636363636363654" cx="278.7009646302251"></circle><circle data-tooltip="ČSSD17,5 %8.10.2014" style="stroke: orange; stroke-width: 3px; fill: none;" r="3" cy="43.636363636363654" cx="300"></circle><circle data-tooltip="ODS3 %18.11.2013" style="stroke: blue; stroke-width: 3px; fill: none;" r="3" cy="106.9090909090909" cx="0"></circle><circle data-tooltip="ODS3,5 %20.1.2014" style="stroke: blue; stroke-width: 3px; fill: none;" r="3" cy="104.72727272727272" cx="58.340836012861736"></circle><circle data-tooltip="ODS5 %10.2.2014" style="stroke: blue; stroke-width: 3px; fill: none;" r="3" cy="98.18181818181817" cx="77.78778135048232"></circle><circle data-tooltip="ODS4 %10.3.2014" style="stroke: blue; stroke-width: 3px; fill: none;" r="3" cy="102.54545454545453" cx="103.7170418006431"></circle><circle data-tooltip="ODS4 %14.4.2014" style="stroke: blue; stroke-width: 3px; fill: none;" r="3" cy="102.54545454545453" cx="136.09003215434083"></circle><circle data-tooltip="ODS4 %12.5.2014" style="stroke: blue; stroke-width: 3px; fill: none;" r="3" cy="102.54545454545453" cx="162.0192926045016"></circle><circle data-tooltip="ODS5,5 %9.6.2014" style="stroke: blue; stroke-width: 3px; fill: none;" r="3" cy="96" cx="187.94855305466237"></circle><circle data-tooltip="ODS5,5 %15.9.2014" style="stroke: blue; stroke-width: 3px; fill: none;" r="3" cy="96" cx="278.7009646302251"></circle><circle data-tooltip="ODS4 %8.10.2014" style="stroke: blue; stroke-width: 3px; fill: none;" r="3" cy="102.54545454545453" cx="300"></circle><circle data-tooltip="Piráti2 %18.11.2013" style="stroke: black; stroke-width: 3px; fill: none;" r="3" cy="111.27272727272727" cx="0"></circle><circle data-tooltip="Piráti1,5 %20.1.2014" style="stroke: black; stroke-width: 3px; fill: none;" r="3" cy="113.45454545454545" cx="58.340836012861736"></circle><circle data-tooltip="Piráti1,5 %10.2.2014" style="stroke: black; stroke-width: 3px; fill: none;" r="3" cy="113.45454545454545" cx="77.78778135048232"></circle><circle data-tooltip="Piráti1 %10.3.2014" style="stroke: black; stroke-width: 3px; fill: none;" r="3" cy="115.63636363636364" cx="103.7170418006431"></circle><circle data-tooltip="Piráti1 %14.4.2014" style="stroke: black; stroke-width: 3px; fill: none;" r="3" cy="115.63636363636364" cx="136.09003215434083"></circle><circle data-tooltip="Piráti1,5 %12.5.2014" style="stroke: black; stroke-width: 3px; fill: none;" r="3" cy="113.45454545454545" cx="162.0192926045016"></circle><circle data-tooltip="Piráti1,5 %9.6.2014" style="stroke: black; stroke-width: 3px; fill: none;" r="3" cy="113.45454545454545" cx="187.94855305466237"></circle><circle data-tooltip="Piráti1 %15.9.2014" style="stroke: black; stroke-width: 3px; fill: none;" r="3" cy="115.63636363636364" cx="278.7009646302251"></circle><circle data-tooltip="Piráti1,5 %8.10.2014" style="stroke: black; stroke-width: 3px; fill: none;" r="3" cy="113.45454545454545" cx="300"></circle><circle data-tooltip="KSČM12 %18.11.2013" style="stroke: red; stroke-width: 3px; fill: none;" r="3" cy="67.63636363636364" cx="0"></circle><circle data-tooltip="KSČM9,5 %20.1.2014" style="stroke: red; stroke-width: 3px; fill: none;" r="3" cy="78.54545454545455" cx="58.340836012861736"></circle><circle data-tooltip="KSČM10,5 %10.2.2014" style="stroke: red; stroke-width: 3px; fill: none;" r="3" cy="74.18181818181819" cx="77.78778135048232"></circle><circle data-tooltip="KSČM9,5 %10.3.2014" style="stroke: red; stroke-width: 3px; fill: none;" r="3" cy="78.54545454545455" cx="103.7170418006431"></circle><circle data-tooltip="KSČM8,5 %14.4.2014" style="stroke: red; stroke-width: 3px; fill: none;" r="3" cy="82.9090909090909" cx="136.09003215434083"></circle><circle data-tooltip="KSČM8,5 %12.5.2014" style="stroke: red; stroke-width: 3px; fill: none;" r="3" cy="82.9090909090909" cx="162.0192926045016"></circle><circle data-tooltip="KSČM10 %9.6.2014" style="stroke: red; stroke-width: 3px; fill: none;" r="3" cy="76.36363636363636" cx="187.94855305466237"></circle><circle data-tooltip="KSČM8,5 %15.9.2014" style="stroke: red; stroke-width: 3px; fill: none;" r="3" cy="82.9090909090909" cx="278.7009646302251"></circle><circle data-tooltip="KSČM9 %8.10.2014" style="stroke: red; stroke-width: 3px; fill: none;" r="3" cy="80.72727272727275" cx="300"></circle><circle data-tooltip="Úsvit4,5 %18.11.2013" style="stroke: pink; stroke-width: 3px; fill: none;" r="3" cy="100.36363636363637" cx="0"></circle><circle data-tooltip="Úsvit3,5 %20.1.2014" style="stroke: pink; stroke-width: 3px; fill: none;" r="3" cy="104.72727272727272" cx="58.340836012861736"></circle><circle data-tooltip="Úsvit3 %10.2.2014" style="stroke: pink; stroke-width: 3px; fill: none;" r="3" cy="106.9090909090909" cx="77.78778135048232"></circle><circle data-tooltip="Úsvit3,5 %10.3.2014" style="stroke: pink; stroke-width: 3px; fill: none;" r="3" cy="104.72727272727272" cx="103.7170418006431"></circle><circle data-tooltip="Úsvit2,5 %14.4.2014" style="stroke: pink; stroke-width: 3px; fill: none;" r="3" cy="109.0909090909091" cx="136.09003215434083"></circle><circle data-tooltip="Úsvit2 %12.5.2014" style="stroke: pink; stroke-width: 3px; fill: none;" r="3" cy="111.27272727272727" cx="162.0192926045016"></circle><circle data-tooltip="Úsvit1,5 %9.6.2014" style="stroke: pink; stroke-width: 3px; fill: none;" r="3" cy="113.45454545454545" cx="187.94855305466237"></circle><circle data-tooltip="Úsvit1 %15.9.2014" style="stroke: pink; stroke-width: 3px; fill: none;" r="3" cy="115.63636363636364" cx="278.7009646302251"></circle><circle data-tooltip="Úsvit2 %8.10.2014" style="stroke: pink; stroke-width: 3px; fill: none;" r="3" cy="111.27272727272727" cx="300"></circle><circle data-tooltip="TOP 096,5 %18.11.2013" style="stroke: rgb(136, 0, 136); stroke-width: 3px; fill: none;" r="3" cy="91.63636363636364" cx="0"></circle><circle data-tooltip="TOP 098 %20.1.2014" style="stroke: rgb(136, 0, 136); stroke-width: 3px; fill: none;" r="3" cy="85.0909090909091" cx="58.340836012861736"></circle><circle data-tooltip="TOP 097,5 %10.2.2014" style="stroke: rgb(136, 0, 136); stroke-width: 3px; fill: none;" r="3" cy="87.27272727272728" cx="77.78778135048232"></circle><circle data-tooltip="TOP 097 %10.3.2014" style="stroke: rgb(136, 0, 136); stroke-width: 3px; fill: none;" r="3" cy="89.45454545454544" cx="103.7170418006431"></circle><circle data-tooltip="TOP 097 %14.4.2014" style="stroke: rgb(136, 0, 136); stroke-width: 3px; fill: none;" r="3" cy="89.45454545454544" cx="136.09003215434083"></circle><circle data-tooltip="TOP 096 %12.5.2014" style="stroke: rgb(136, 0, 136); stroke-width: 3px; fill: none;" r="3" cy="93.81818181818183" cx="162.0192926045016"></circle><circle data-tooltip="TOP 098 %9.6.2014" style="stroke: rgb(136, 0, 136); stroke-width: 3px; fill: none;" r="3" cy="85.0909090909091" cx="187.94855305466237"></circle><circle data-tooltip="TOP 095,5 %15.9.2014" style="stroke: rgb(136, 0, 136); stroke-width: 3px; fill: none;" r="3" cy="96" cx="278.7009646302251"></circle><circle data-tooltip="TOP 097 %8.10.2014" style="stroke: rgb(136, 0, 136); stroke-width: 3px; fill: none;" r="3" cy="89.45454545454544" cx="300"></circle><circle data-tooltip="ANO17 %18.11.2013" style="stroke: rgb(0, 187, 187); stroke-width: 3px; fill: none;" r="3" cy="45.81818181818182" cx="0"></circle><circle data-tooltip="ANO17,5 %20.1.2014" style="stroke: rgb(0, 187, 187); stroke-width: 3px; fill: none;" r="3" cy="43.636363636363654" cx="58.340836012861736"></circle><circle data-tooltip="ANO17,5 %10.2.2014" style="stroke: rgb(0, 187, 187); stroke-width: 3px; fill: none;" r="3" cy="43.636363636363654" cx="77.78778135048232"></circle><circle data-tooltip="ANO18,5 %10.3.2014" style="stroke: rgb(0, 187, 187); stroke-width: 3px; fill: none;" r="3" cy="39.27272727272729" cx="103.7170418006431"></circle><circle data-tooltip="ANO21,5 %14.4.2014" style="stroke: rgb(0, 187, 187); stroke-width: 3px; fill: none;" r="3" cy="26.18181818181819" cx="136.09003215434083"></circle><circle data-tooltip="ANO22 %12.5.2014" style="stroke: rgb(0, 187, 187); stroke-width: 3px; fill: none;" r="3" cy="24.000000000000007" cx="162.0192926045016"></circle><circle data-tooltip="ANO20 %9.6.2014" style="stroke: rgb(0, 187, 187); stroke-width: 3px; fill: none;" r="3" cy="32.72727272727273" cx="187.94855305466237"></circle><circle data-tooltip="ANO19 %15.9.2014" style="stroke: rgb(0, 187, 187); stroke-width: 3px; fill: none;" r="3" cy="37.0909090909091" cx="278.7009646302251"></circle><circle data-tooltip="ANO21 %8.10.2014" style="stroke: rgb(0, 187, 187); stroke-width: 3px; fill: none;" r="3" cy="28.363636363636374" cx="300"></circle><circle data-tooltip="KDU-ČSL4,5 %18.11.2013" style="stroke: yellow; stroke-width: 3px; fill: none;" r="3" cy="100.36363636363637" cx="0"></circle><circle data-tooltip="KDU-ČSL4,5 %20.1.2014" style="stroke: yellow; stroke-width: 3px; fill: none;" r="3" cy="100.36363636363637" cx="58.340836012861736"></circle><circle data-tooltip="KDU-ČSL4 %10.2.2014" style="stroke: yellow; stroke-width: 3px; fill: none;" r="3" cy="102.54545454545453" cx="77.78778135048232"></circle><circle data-tooltip="KDU-ČSL4 %10.3.2014" style="stroke: yellow; stroke-width: 3px; fill: none;" r="3" cy="102.54545454545453" cx="103.7170418006431"></circle><circle data-tooltip="KDU-ČSL4 %14.4.2014" style="stroke: yellow; stroke-width: 3px; fill: none;" r="3" cy="102.54545454545453" cx="136.09003215434083"></circle><circle data-tooltip="KDU-ČSL4,5 %12.5.2014" style="stroke: yellow; stroke-width: 3px; fill: none;" r="3" cy="100.36363636363637" cx="162.0192926045016"></circle><circle data-tooltip="KDU-ČSL3,5 %9.6.2014" style="stroke: yellow; stroke-width: 3px; fill: none;" r="3" cy="104.72727272727272" cx="187.94855305466237"></circle><circle data-tooltip="KDU-ČSL4 %15.9.2014" style="stroke: yellow; stroke-width: 3px; fill: none;" r="3" cy="102.54545454545453" cx="278.7009646302251"></circle><circle data-tooltip="KDU-ČSL5 %8.10.2014" style="stroke: yellow; stroke-width: 3px; fill: none;" r="3" cy="98.18181818181817" cx="300"></circle><circle data-tooltip="Svobodní1 %12.5.2014" style="stroke: rgb(0, 102, 0); stroke-width: 3px; fill: none;" r="3" cy="115.63636363636364" cx="162.0192926045016"></circle><circle data-tooltip="Svobodní1 %9.6.2014" style="stroke: rgb(0, 102, 0); stroke-width: 3px; fill: none;" r="3" cy="115.63636363636364" cx="187.94855305466237"></circle><circle data-tooltip="Svobodní1 %8.10.2014" style="stroke: rgb(0, 102, 0); stroke-width: 3px; fill: none;" r="3" cy="115.63636363636364" cx="300"></circle></g></g></g></svg>