<svg height="150" width="400"><g><g height="150" width="400"><g transform="translate(50,15)"><g transform="translate(0,120)" class="x axis"><path shape-rendering="crispEdges" fill="none" stroke="#ccc" d="M0,0V0H300V0" class="domain"></path></g><g class="y axis"><g transform="translate(0,120)" style="opacity: 1;" class="tick"><line shape-rendering="crispEdges" fill="none" stroke="#ccc" y2="0" x2="-6"></line><text shape-rendering="crispEdges" fill="#666" font-size="10px" y="0" x="-9" style="text-anchor: end;" dy=".32em">0%</text></g><g transform="translate(0,111.27272727272727)" style="opacity: 1;" class="tick"><line shape-rendering="crispEdges" fill="none" stroke="#ccc" y2="0" x2="-6"></line><text shape-rendering="crispEdges" fill="#666" font-size="10px" y="0" x="-9" style="text-anchor: end;" dy=".32em">2%</text></g><g transform="translate(0,102.54545454545453)" style="opacity: 1;" class="tick"><line shape-rendering="crispEdges" fill="none" stroke="#ccc" y2="0" x2="-6"></line><text shape-rendering="crispEdges" fill="#666" font-size="10px" y="0" x="-9" style="text-anchor: end;" dy=".32em">4%</text></g><g transform="translate(0,93.81818181818183)" style="opacity: 1;" class="tick"><line shape-rendering="crispEdges" fill="none" stroke="#ccc" y2="0" x2="-6"></line><text shape-rendering="crispEdges" fill="#666" font-size="10px" y="0" x="-9" style="text-anchor: end;" dy=".32em">6%</text></g><g transform="translate(0,85.0909090909091)" style="opacity: 1;" class="tick"><line shape-rendering="crispEdges" fill="none" stroke="#ccc" y2="0" x2="-6"></line><text shape-rendering="crispEdges" fill="#666" font-size="10px" y="0" x="-9" style="text-anchor: end;" dy=".32em">8%</text></g><g transform="translate(0,76.36363636363636)" style="opacity: 1;" class="tick"><line shape-rendering="crispEdges" fill="none" stroke="#ccc" y2="0" x2="-6"></line><text shape-rendering="crispEdges" fill="#666" font-size="10px" y="0" x="-9" style="text-anchor: end;" dy=".32em">10%</text></g><g transform="translate(0,67.63636363636364)" style="opacity: 1;" class="tick"><line shape-rendering="crispEdges" fill="none" stroke="#ccc" y2="0" x2="-6"></line><text shape-rendering="crispEdges" fill="#666" font-size="10px" y="0" x="-9" style="text-anchor: end;" dy=".32em">12%</text></g><g transform="translate(0,58.9090909090909)" style="opacity: 1;" class="tick"><line shape-rendering="crispEdges" fill="none" stroke="#ccc" y2="0" x2="-6"></line><text shape-rendering="crispEdges" fill="#666" font-size="10px" y="0" x="-9" style="text-anchor: end;" dy=".32em">14%</text></g><g transform="translate(0,50.18181818181819)" style="opacity: 1;" class="tick"><line shape-rendering="crispEdges" fill="none" stroke="#ccc" y2="0" x2="-6"></line><text shape-rendering="crispEdges" fill="#666" font-size="10px" y="0" x="-9" style="text-anchor: end;" dy=".32em">16%</text></g><g transform="translate(0,41.45454545454547)" style="opacity: 1;" class="tick"><line shape-rendering="crispEdges" fill="none" stroke="#ccc" y2="0" x2="-6"></line><text shape-rendering="crispEdges" fill="#666" font-size="10px" y="0" x="-9" style="text-anchor: end;" dy=".32em">18%</text></g><g transform="translate(0,32.72727272727273)" style="opacity: 1;" class="tick"><line shape-rendering="crispEdges" fill="none" stroke="#ccc" y2="0" x2="-6"></line><text shape-rendering="crispEdges" fill="#666" font-size="10px" y="0" x="-9" style="text-anchor: end;" dy=".32em">20%</text></g><g transform="translate(0,24.000000000000007)" style="opacity: 1;" class="tick"><line shape-rendering="crispEdges" fill="none" stroke="#ccc" y2="0" x2="-6"></line><text shape-rendering="crispEdges" fill="#666" font-size="10px" y="0" x="-9" style="text-anchor: end;" dy=".32em">22%</text></g><g transform="translate(0,15.272727272727291)" style="opacity: 1;" class="tick"><line shape-rendering="crispEdges" fill="none" stroke="#ccc" y2="0" x2="-6"></line><text shape-rendering="crispEdges" fill="#666" font-size="10px" y="0" x="-9" style="text-anchor: end;" dy=".32em">24%</text></g><g transform="translate(0,6.545454545454548)" style="opacity: 1;" class="tick"><line shape-rendering="crispEdges" fill="none" stroke="#ccc" y2="0" x2="-6"></line><text shape-rendering="crispEdges" fill="#666" font-size="10px" y="0" x="-9" style="text-anchor: end;" dy=".32em">26%</text></g><path shape-rendering="crispEdges" fill="none" stroke="#ccc" d="M-6,0H0V120H-6" class="domain"></path><text shape-rendering="crispEdges" fill="#666" font-size="10px" style="text-anchor: end;" dy=".71em" y="6" transform="rotate(-90)">Rate</text></g><g transform="translate(305,0)" class="y axis"><g transform="translate(0,120)" style="opacity: 1;" class="tick"><line shape-rendering="crispEdges" fill="none" stroke="#ccc" y2="0" x2="6"></line><text shape-rendering="crispEdges" fill="#666" font-size="10px" y="0" x="9" style="text-anchor: start;" dy=".32em">0%</text></g><g transform="translate(0,111.27272727272727)" style="opacity: 1;" class="tick"><line shape-rendering="crispEdges" fill="none" stroke="#ccc" y2="0" x2="6"></line><text shape-rendering="crispEdges" fill="#666" font-size="10px" y="0" x="9" style="text-anchor: start;" dy=".32em">2%</text></g><g transform="translate(0,102.54545454545453)" style="opacity: 1;" class="tick"><line shape-rendering="crispEdges" fill="none" stroke="#ccc" y2="0" x2="6"></line><text shape-rendering="crispEdges" fill="#666" font-size="10px" y="0" x="9" style="text-anchor: start;" dy=".32em">4%</text></g><g transform="translate(0,93.81818181818183)" style="opacity: 1;" class="tick"><line shape-rendering="crispEdges" fill="none" stroke="#ccc" y2="0" x2="6"></line><text shape-rendering="crispEdges" fill="#666" font-size="10px" y="0" x="9" style="text-anchor: start;" dy=".32em">6%</text></g><g transform="translate(0,85.0909090909091)" style="opacity: 1;" class="tick"><line shape-rendering="crispEdges" fill="none" stroke="#ccc" y2="0" x2="6"></line><text shape-rendering="crispEdges" fill="#666" font-size="10px" y="0" x="9" style="text-anchor: start;" dy=".32em">8%</text></g><g transform="translate(0,76.36363636363636)" style="opacity: 1;" class="tick"><line shape-rendering="crispEdges" fill="none" stroke="#ccc" y2="0" x2="6"></line><text shape-rendering="crispEdges" fill="#666" font-size="10px" y="0" x="9" style="text-anchor: start;" dy=".32em">10%</text></g><g transform="translate(0,67.63636363636364)" style="opacity: 1;" class="tick"><line shape-rendering="crispEdges" fill="none" stroke="#ccc" y2="0" x2="6"></line><text shape-rendering="crispEdges" fill="#666" font-size="10px" y="0" x="9" style="text-anchor: start;" dy=".32em">12%</text></g><g transform="translate(0,58.9090909090909)" style="opacity: 1;" class="tick"><line shape-rendering="crispEdges" fill="none" stroke="#ccc" y2="0" x2="6"></line><text shape-rendering="crispEdges" fill="#666" font-size="10px" y="0" x="9" style="text-anchor: start;" dy=".32em">14%</text></g><g transform="translate(0,50.18181818181819)" style="opacity: 1;" class="tick"><line shape-rendering="crispEdges" fill="none" stroke="#ccc" y2="0" x2="6"></line><text shape-rendering="crispEdges" fill="#666" font-size="10px" y="0" x="9" style="text-anchor: start;" dy=".32em">16%</text></g><g transform="translate(0,41.45454545454547)" style="opacity: 1;" class="tick"><line shape-rendering="crispEdges" fill="none" stroke="#ccc" y2="0" x2="6"></line><text shape-rendering="crispEdges" fill="#666" font-size="10px" y="0" x="9" style="text-anchor: start;" dy=".32em">18%</text></g><g transform="translate(0,32.72727272727273)" style="opacity: 1;" class="tick"><line shape-rendering="crispEdges" fill="none" stroke="#ccc" y2="0" x2="6"></line><text shape-rendering="crispEdges" fill="#666" font-size="10px" y="0" x="9" style="text-anchor: start;" dy=".32em">20%</text></g><g transform="translate(0,24.000000000000007)" style="opacity: 1;" class="tick"><line shape-rendering="crispEdges" fill="none" stroke="#ccc" y2="0" x2="6"></line><text shape-rendering="crispEdges" fill="#666" font-size="10px" y="0" x="9" style="text-anchor: start;" dy=".32em">22%</text></g><g transform="translate(0,15.272727272727291)" style="opacity: 1;" class="tick"><line shape-rendering="crispEdges" fill="none" stroke="#ccc" y2="0" x2="6"></line><text shape-rendering="crispEdges" fill="#666" font-size="10px" y="0" x="9" style="text-anchor: start;" dy=".32em">24%</text></g><g transform="translate(0,6.545454545454548)" style="opacity: 1;" class="tick"><line shape-rendering="crispEdges" fill="none" stroke="#ccc" y2="0" x2="6"></line><text shape-rendering="crispEdges" fill="#666" font-size="10px" y="0" x="9" style="text-anchor: start;" dy=".32em">26%</text></g><path shape-rendering="crispEdges" fill="none" stroke="#ccc" d="M6,0H0V120H6" class="domain"></path></g><path title="ods" style="fill: blue; fill-opacity: 0.2;" id="ods-band" class="area band" d="M0,71.65639426491477Q44.22398759930246,79.66623646129261,53.01298198023639,80.46952681107955C66.19647355163728,81.67446233575994,76.79906994768456,79.55603859641334,87.88994380933927,79.68929776278408S114.60569657043207,82.08125110973013,126.9521410579345,81.35792125355115S155.9697732997481,75.39798805930398,170.1995737260221,74.8670987215909S202.34741329199767,77.79109330610795,221.81747723309437,77.81865900213067Q234.79751986049217,77.83703613281249,300,75.05087002840908L300,94.57670454545452Q234.79751986049217,97.02240767045456,221.81747723309437,96.91672585227273C202.34741329199767,96.75820312500001,184.42937415229608,93.11431107954547,170.1995737260221,93.51988636363637S139.29858554543694,98.73925781249999,126.9521410579345,99.62056107954544S98.98081767099399,99.50063032670454,87.88994380933927,99.39524147727272S66.19647355163728,100.01424449573862,53.01298198023639,98.91796874999999Q44.22398759930246,98.1871182528409,0,92.08673650568184Z"></path><path title="kscm" style="fill: red; fill-opacity: 0.2;" id="kscm-band" class="area band" d="M0,41.20572176846593Q44.22398759930246,41.08234197443188,53.01298198023639,41.06989080255688C66.19647355163728,41.05121404474438,76.79906994768456,40.417805619673345,87.88994380933927,41.08121004971594S114.60569657043207,44.59209761186073,126.9521410579345,45.49258700284084S155.9697732997481,47.68845103870741,170.1995737260221,47.08447265625004S202.34741329199767,42.32920032848018,221.81747723309437,41.46606445312506Q234.79751986049217,40.89064053622164,300,41.3302334872159L300,67.0339133522727Q234.79751986049217,67.00104758522717,221.81747723309437,67.38547585227263C202.34741329199767,67.96211825284082,184.42937415229608,70.31849254261365,170.1995737260221,70.87819602272732S139.29858554543694,71.44658203125009,126.9521410579345,71.11683238636371S98.98081767099399,69.30428799715907,87.88994380933927,68.67986505681814S66.19647355163728,67.16015625,53.01298198023639,66.9540127840909Q44.22398759930246,66.81658380681817,0,67.30557528409082Z"></path><path title="ano" style="fill: rgb(0, 187, 187); fill-opacity: 0.2;" id="ano-band" class="area band" d="M0,19.617021040482932Q44.22398759930246,5.898163396661961,53.01298198023639,4.7425648082386695C66.19647355163728,3.009166925603732,76.79906994768456,9.638691850142067,87.88994380933927,8.061035156250016S114.60569657043207,-5.72327603426847,126.9521410579345,-5.775146484375S155.9697732997481,5.619550115411972,170.1995737260221,7.715232155539815S202.34741329199767,9.836645507812495,221.81747723309437,8.196067116477286Q234.79751986049217,7.10234818892048,300,-3.221957120028245L300,27.740012428977323Q234.79751986049217,37.42880859375001,221.81747723309437,38.291015625000014C202.34741329199767,39.58432617187502,184.42937415229608,38.177223899147805,170.1995737260221,36.36208274147735S139.29858554543694,25.630031516335244,126.9521410579345,26.190074573863637S98.98081767099399,38.74210759943178,87.88994380933927,40.09570312499997S66.19647355163728,33.93929110440346,53.01298198023639,35.21404474431824Q44.22398759930246,36.06388050426142,0,48.59406072443182Z"></path><path title="cssd" style="fill: orange; fill-opacity: 0.2;" id="cssd-band" class="area band" d="M0,13.630038174715873Q44.22398759930246,12.757913485440334,53.01298198023639,13.745760830965907C66.19647355163728,15.227531849254266,76.79906994768456,23.923829789595167,87.88994380933927,23.508511629971597S114.60569657043207,11.717117032137839,126.9521410579345,10.976973100142096S155.9697732997481,18.45818314985795,170.1995737260221,18.574218749999986S202.34741329199767,12.476390491832392,221.81747723309437,11.750543767755687Q234.79751986049217,11.26664595170455,300,13.735240589488624L300,43.045365767045524Q234.79751986049217,41.259481534090924,221.81747723309437,41.556685014204554C202.34741329199767,42.002490234375,184.42937415229608,46.05691139914775,170.1995737260221,46.01740056818184S139.29858554543694,40.16090864701708,126.9521410579345,41.29327947443184S98.98081767099399,53.275201970880595,87.88994380933927,53.566539417613555S66.19647355163728,44.761689897017085,53.01298198023639,43.235529119318244Q44.22398759930246,42.21808860085235,0,43.392134232954625Z"></path><path title="kdu-csl" style="fill: yellow; fill-opacity: 0.2;" id="kdu-csl-band" class="area band" d="M0,77.65852494673298Q44.22398759930246,81.82329878373585,53.01298198023639,82.47852672230118C66.19647355163728,83.4613686301492,76.79906994768456,82.68119784268465,87.88994380933927,84.21080433238636S114.60569657043207,93.2891102183949,126.9521410579345,92.67590332031251S155.9697732997481,82.35134499289772,170.1995737260221,80.12275834517044S202.34741329199767,77.47836747602982,221.81747723309437,77.81865900213067Q234.79751986049217,78.04552001953124,300,82.39136851917614L300,100.13299005681817Q234.79751986049217,97.16500355113637,221.81747723309437,96.91672585227273C202.34741329199767,96.54430930397727,184.42937415229608,95.99339488636362,170.1995737260221,97.6502130681818S139.29858554543694,107.22054332386362,126.9521410579345,107.96218039772727S98.98081767099399,103.7376775568182,87.88994380933927,102.59446022727275S66.19647355163728,101.19478870738637,53.01298198023639,100.3407315340909Q44.22398759930246,99.77136008522727,0,96.90074573863636Z"></path><path title="top-09" style="fill: rgb(136, 0, 136); fill-opacity: 0.2;" id="top-09-band" class="area band" d="M0,57.319835316051126Q44.22398759930246,65.71049360795462,53.01298198023639,65.24746981534098C66.19647355163728,64.55293412642052,76.79906994768456,55.318251176313936,87.88994380933927,52.68959738991477S114.60569657043207,47.64970259232954,126.9521410579345,47.723111239346586S155.9697732997481,52.11944191672587,170.1995737260221,53.178988370028414S202.34741329199767,53.39103116122153,221.81747723309437,54.78675426136357Q234.79751986049217,55.71723632812493,300,62.48380903764204L300,84.56809303977275Q234.79751986049217,79.28639914772731,221.81747723309437,78.41974431818186C202.34741329199767,77.11976207386367,184.42937415229608,76.72000621448865,170.1995737260221,75.90154474431819S139.29858554543694,72.60977450284092,126.9521410579345,72.96333451704547S98.98081767099399,76.15774591619319,87.88994380933927,78.25861150568183S66.19647355163728,86.60787464488637,53.01298198023639,86.96910511363637Q44.22398759930246,87.20992542613638,0,80.66681463068184Z"></path><path title="svobodni" style="fill: rgb(0, 102, 0); fill-opacity: 0.2;" id="svobodni-band" class="area band" d="M0,103.61821954900567Q44.22398759930246,100.86734619140628,53.01298198023639,100.53442382812503C66.19647355163728,100.03504028320316,76.79906994768456,100.72892345081678,87.88994380933927,100.28899591619319S114.60569657043207,97.59963600852271,126.9521410579345,97.60157359730113S155.9697732997481,99.21925548206679,170.1995737260221,100.30191317471593S202.34741329199767,104.03206121271309,221.81747723309437,104.81929154829547Q234.79751986049217,105.34411177201706,300,105.55011541193183L300,115.67897727272727Q234.79751986049217,115.47890625,221.81747723309437,115.11647727272727C202.34741329199767,114.57283380681818,184.42937415229608,112.64770951704546,170.1995737260221,112.0546875S139.29858554543694,110.95397727272727,126.9521410579345,111.1629971590909S98.98081767099399,113.1897549715909,87.88994380933927,113.4481534090909S66.19647355163728,112.65793678977272,53.01298198023639,112.8856534090909Q44.22398759930246,113.03746448863636,0,114.96626420454545Z"></path><path title="usvit" style="fill: pink; fill-opacity: 0.2;" id="usvit-band" class="area band" d="M0,90.3445712002841Q44.22398759930246,87.15624556107957,53.01298198023639,86.5428688742898C66.19647355163728,85.62280384410514,76.79906994768456,82.92359119762074,87.88994380933927,84.21080433238636S114.60569657043207,94.53852372602984,126.9521410579345,95.12428977272728S155.9697732997481,88.90308172052559,170.1995737260221,88.11591131036934S202.34741329199767,89.90480180220173,221.81747723309437,89.8764870383523Q234.79751986049217,89.85761052911934,300,87.9271462180398L300,104.29101562499999Q234.79751986049217,105.76352982954545,221.81747723309437,105.70845170454545C202.34741329199767,105.62583451704546,184.42937415229608,103.15999644886365,170.1995737260221,103.74023437500001S139.29858554543694,109.74857066761362,126.9521410579345,109.57670454545453S98.98081767099399,103.56133700284093,87.88994380933927,102.59446022727275S66.19647355163728,102.58386008522729,53.01298198023639,103.13085937500001Q44.22398759930246,103.49552556818183,0,106.2411221590909Z"></path><path title="zeleni" style="fill: green; fill-opacity: 0.2;" id="zeleni-band" class="area band" d="M0,99.46229137073864Q44.22398759930246,98.63193470348014,53.01298198023639,98.3726140802557C66.19647355163728,97.98363314541905,76.79906994768456,95.83356878107244,87.88994380933927,96.86908513849431S114.60569657043207,104.33379905007101,126.9521410579345,105.27605646306817S155.9697732997481,103.56502075195313,170.1995737260221,103.15080122514205S202.34741329199767,102.15469582297584,221.81747723309437,102.51459295099431Q234.79751986049217,102.75452436967329,300,105.55011541193183L300,115.67897727272727Q234.79751986049217,114.10003551136363,221.81747723309437,113.92223011363636C202.34741329199767,113.65552201704546,184.42937415229608,113.6374112215909,170.1995737260221,113.90092329545453S139.29858554543694,116.094140625,126.9521410579345,115.67897727272727S98.98081767099399,111.74121093750001,87.88994380933927,111.13316761363637S66.19647355163728,111.49096235795456,53.01298198023639,111.62535511363637Q44.22398759930246,111.71495028409092,0,112.02911931818181Z"></path><path title="jine-strany" style="fill: rgb(136, 136, 136); fill-opacity: 0.2;" id="jine-strany-band" class="area band" d="M0,99.46229137073864Q44.22398759930246,102.66563165838069,53.01298198023639,102.74830211292614C66.19647355163728,102.87230779474432,76.79906994768456,99.90983276367189,87.88994380933927,100.28899591619319S114.60569657043207,103.96133755770596,126.9521410579345,105.27605646306817S155.9697732997481,109.46800814541905,170.1995737260221,109.05378861860797S202.34741329199767,103.04014393199573,221.81747723309437,102.51459295099431Q234.79751986049217,102.1642256303267,300,105.55011541193183L300,115.67897727272727Q234.79751986049217,113.75028409090909,221.81747723309437,113.92223011363636C202.34741329199767,114.18014914772728,184.42937415229608,117.13492542613638,170.1995737260221,117.39843750000001S139.29858554543694,116.27151988636363,126.9521410579345,115.67897727272727S98.98081767099399,113.68449928977272,87.88994380933927,113.4481534090909S66.19647355163728,114.31619318181819,53.01298198023639,114.10333806818183Q44.22398759930246,113.96143465909091,0,112.02911931818181Z"></path><path title="pirati" style="fill: black; fill-opacity: 0.2;" id="pirati-band" class="area band" d="M0,97.1389493075284Q44.22398759930246,100.56141024502844,53.01298198023639,100.53442382812503C66.19647355163728,100.49394420276991,76.79906994768456,97.3090126731179,87.88994380933927,96.86908513849431S114.60569657043207,97.5071211381392,126.9521410579345,97.60157359730113S155.9697732997481,96.76181529651988,170.1995737260221,97.49876819957386S202.34741329199767,102.20262617631391,221.81747723309437,102.51459295099431Q234.79751986049217,102.72257080078124,300,99.57854669744319L300,111.95241477272727Q234.79751986049217,114.099609375,221.81747723309437,113.92223011363636C202.34741329199767,113.6561612215909,184.42937415229608,110.59250710227273,170.1995737260221,110.17862215909092S139.29858554543694,111.01981534090909,126.9521410579345,111.1629971590909S98.98081767099399,110.87476917613637,87.88994380933927,111.13316761363637S66.19647355163728,112.96171875,53.01298198023639,112.8856534090909Q44.22398759930246,112.83494318181818,0,110.62606534090911Z"></path><circle data-tooltip="ODS8,5 %31.3.2014" style="stroke: blue; stroke-width: 3px; fill: none;" r="3" cy="82.9090909090909" cx="0"></circle><circle data-tooltip="ODS7 %8.5.2014" style="stroke: blue; stroke-width: 3px; fill: none;" r="3" cy="89.45454545454544" cx="53.01298198023639"></circle><circle data-tooltip="ODS7 %2.6.2014" style="stroke: blue; stroke-width: 3px; fill: none;" r="3" cy="89.45454545454544" cx="87.88994380933927"></circle><circle data-tooltip="ODS6,5 %30.6.2014" style="stroke: blue; stroke-width: 3px; fill: none;" r="3" cy="91.63636363636364" cx="126.9521410579345"></circle><circle data-tooltip="ODS8 %31.7.2014" style="stroke: blue; stroke-width: 3px; fill: none;" r="3" cy="85.0909090909091" cx="170.1995737260221"></circle><circle data-tooltip="ODS7,5 %6.9.2014" style="stroke: blue; stroke-width: 3px; fill: none;" r="3" cy="87.27272727272728" cx="221.81747723309437"></circle><circle data-tooltip="ODS8 %1.11.2014" style="stroke: blue; stroke-width: 3px; fill: none;" r="3" cy="85.0909090909091" cx="300"></circle><circle data-tooltip="KSČM15 %31.3.2014" style="stroke: red; stroke-width: 3px; fill: none;" r="3" cy="54.54545454545455" cx="0"></circle><circle data-tooltip="KSČM15 %8.5.2014" style="stroke: red; stroke-width: 3px; fill: none;" r="3" cy="54.54545454545455" cx="53.01298198023639"></circle><circle data-tooltip="KSČM15 %2.6.2014" style="stroke: red; stroke-width: 3px; fill: none;" r="3" cy="54.54545454545455" cx="87.88994380933927"></circle><circle data-tooltip="KSČM14 %30.6.2014" style="stroke: red; stroke-width: 3px; fill: none;" r="3" cy="58.9090909090909" cx="126.9521410579345"></circle><circle data-tooltip="KSČM14 %31.7.2014" style="stroke: red; stroke-width: 3px; fill: none;" r="3" cy="58.9090909090909" cx="170.1995737260221"></circle><circle data-tooltip="KSČM15 %6.9.2014" style="stroke: red; stroke-width: 3px; fill: none;" r="3" cy="54.54545454545455" cx="221.81747723309437"></circle><circle data-tooltip="KSČM15 %1.11.2014" style="stroke: red; stroke-width: 3px; fill: none;" r="3" cy="54.54545454545455" cx="300"></circle><circle data-tooltip="ANO19,5 %31.3.2014" style="stroke: rgb(0, 187, 187); stroke-width: 3px; fill: none;" r="3" cy="34.90909090909091" cx="0"></circle><circle data-tooltip="ANO23 %8.5.2014" style="stroke: rgb(0, 187, 187); stroke-width: 3px; fill: none;" r="3" cy="19.636363636363644" cx="53.01298198023639"></circle><circle data-tooltip="ANO22 %2.6.2014" style="stroke: rgb(0, 187, 187); stroke-width: 3px; fill: none;" r="3" cy="24.000000000000007" cx="87.88994380933927"></circle><circle data-tooltip="ANO25 %30.6.2014" style="stroke: rgb(0, 187, 187); stroke-width: 3px; fill: none;" r="3" cy="10.909090909090914" cx="126.9521410579345"></circle><circle data-tooltip="ANO22,5 %31.7.2014" style="stroke: rgb(0, 187, 187); stroke-width: 3px; fill: none;" r="3" cy="21.818181818181827" cx="170.1995737260221"></circle><circle data-tooltip="ANO22 %6.9.2014" style="stroke: rgb(0, 187, 187); stroke-width: 3px; fill: none;" r="3" cy="24.000000000000007" cx="221.81747723309437"></circle><circle data-tooltip="ANO24,5 %1.11.2014" style="stroke: rgb(0, 187, 187); stroke-width: 3px; fill: none;" r="3" cy="13.090909090909095" cx="300"></circle><circle data-tooltip="ČSSD21 %31.3.2014" style="stroke: orange; stroke-width: 3px; fill: none;" r="3" cy="28.363636363636374" cx="0"></circle><circle data-tooltip="ČSSD21 %8.5.2014" style="stroke: orange; stroke-width: 3px; fill: none;" r="3" cy="28.363636363636374" cx="53.01298198023639"></circle><circle data-tooltip="ČSSD18,5 %2.6.2014" style="stroke: orange; stroke-width: 3px; fill: none;" r="3" cy="39.27272727272729" cx="87.88994380933927"></circle><circle data-tooltip="ČSSD21,5 %30.6.2014" style="stroke: orange; stroke-width: 3px; fill: none;" r="3" cy="26.18181818181819" cx="126.9521410579345"></circle><circle data-tooltip="ČSSD20 %31.7.2014" style="stroke: orange; stroke-width: 3px; fill: none;" r="3" cy="32.72727272727273" cx="170.1995737260221"></circle><circle data-tooltip="ČSSD21,5 %6.9.2014" style="stroke: orange; stroke-width: 3px; fill: none;" r="3" cy="26.18181818181819" cx="221.81747723309437"></circle><circle data-tooltip="ČSSD21 %1.11.2014" style="stroke: orange; stroke-width: 3px; fill: none;" r="3" cy="28.363636363636374" cx="300"></circle><circle data-tooltip="KDU-ČSL7,5 %31.3.2014" style="stroke: yellow; stroke-width: 3px; fill: none;" r="3" cy="87.27272727272728" cx="0"></circle><circle data-tooltip="KDU-ČSL6,5 %8.5.2014" style="stroke: yellow; stroke-width: 3px; fill: none;" r="3" cy="91.63636363636364" cx="53.01298198023639"></circle><circle data-tooltip="KDU-ČSL6 %2.6.2014" style="stroke: yellow; stroke-width: 3px; fill: none;" r="3" cy="93.81818181818183" cx="87.88994380933927"></circle><circle data-tooltip="KDU-ČSL4,5 %30.6.2014" style="stroke: yellow; stroke-width: 3px; fill: none;" r="3" cy="100.36363636363637" cx="126.9521410579345"></circle><circle data-tooltip="KDU-ČSL7 %31.7.2014" style="stroke: yellow; stroke-width: 3px; fill: none;" r="3" cy="89.45454545454544" cx="170.1995737260221"></circle><circle data-tooltip="KDU-ČSL7,5 %6.9.2014" style="stroke: yellow; stroke-width: 3px; fill: none;" r="3" cy="87.27272727272728" cx="221.81747723309437"></circle><circle data-tooltip="KDU-ČSL6,5 %1.11.2014" style="stroke: yellow; stroke-width: 3px; fill: none;" r="3" cy="91.63636363636364" cx="300"></circle><circle data-tooltip="TOP 0911,5 %31.3.2014" style="stroke: rgb(136, 0, 136); stroke-width: 3px; fill: none;" r="3" cy="69.81818181818181" cx="0"></circle><circle data-tooltip="TOP 0910 %8.5.2014" style="stroke: rgb(136, 0, 136); stroke-width: 3px; fill: none;" r="3" cy="76.36363636363636" cx="53.01298198023639"></circle><circle data-tooltip="TOP 0912,5 %2.6.2014" style="stroke: rgb(136, 0, 136); stroke-width: 3px; fill: none;" r="3" cy="65.45454545454545" cx="87.88994380933927"></circle><circle data-tooltip="TOP 0913,5 %30.6.2014" style="stroke: rgb(136, 0, 136); stroke-width: 3px; fill: none;" r="3" cy="61.090909090909086" cx="126.9521410579345"></circle><circle data-tooltip="TOP 0912,5 %31.7.2014" style="stroke: rgb(136, 0, 136); stroke-width: 3px; fill: none;" r="3" cy="65.45454545454545" cx="170.1995737260221"></circle><circle data-tooltip="TOP 0912 %6.9.2014" style="stroke: rgb(136, 0, 136); stroke-width: 3px; fill: none;" r="3" cy="67.63636363636364" cx="221.81747723309437"></circle><circle data-tooltip="TOP 0910,5 %1.11.2014" style="stroke: rgb(136, 0, 136); stroke-width: 3px; fill: none;" r="3" cy="74.18181818181819" cx="300"></circle><circle data-tooltip="Svobodní2,5 %31.3.2014" style="stroke: rgb(0, 102, 0); stroke-width: 3px; fill: none;" r="3" cy="109.0909090909091" cx="0"></circle><circle data-tooltip="Svobodní3 %8.5.2014" style="stroke: rgb(0, 102, 0); stroke-width: 3px; fill: none;" r="3" cy="106.9090909090909" cx="53.01298198023639"></circle><circle data-tooltip="Svobodní3 %2.6.2014" style="stroke: rgb(0, 102, 0); stroke-width: 3px; fill: none;" r="3" cy="106.9090909090909" cx="87.88994380933927"></circle><circle data-tooltip="Svobodní3,5 %30.6.2014" style="stroke: rgb(0, 102, 0); stroke-width: 3px; fill: none;" r="3" cy="104.72727272727272" cx="126.9521410579345"></circle><circle data-tooltip="Svobodní3 %31.7.2014" style="stroke: rgb(0, 102, 0); stroke-width: 3px; fill: none;" r="3" cy="106.9090909090909" cx="170.1995737260221"></circle><circle data-tooltip="Svobodní2 %6.9.2014" style="stroke: rgb(0, 102, 0); stroke-width: 3px; fill: none;" r="3" cy="111.27272727272727" cx="221.81747723309437"></circle><circle data-tooltip="Svobodní2 %1.11.2014" style="stroke: rgb(0, 102, 0); stroke-width: 3px; fill: none;" r="3" cy="111.27272727272727" cx="300"></circle><circle data-tooltip="Úsvit5 %31.3.2014" style="stroke: pink; stroke-width: 3px; fill: none;" r="3" cy="98.18181818181817" cx="0"></circle><circle data-tooltip="Úsvit5,5 %8.5.2014" style="stroke: pink; stroke-width: 3px; fill: none;" r="3" cy="96" cx="53.01298198023639"></circle><circle data-tooltip="Úsvit6 %2.6.2014" style="stroke: pink; stroke-width: 3px; fill: none;" r="3" cy="93.81818181818183" cx="87.88994380933927"></circle><circle data-tooltip="Úsvit4 %30.6.2014" style="stroke: pink; stroke-width: 3px; fill: none;" r="3" cy="102.54545454545453" cx="126.9521410579345"></circle><circle data-tooltip="Úsvit5,5 %31.7.2014" style="stroke: pink; stroke-width: 3px; fill: none;" r="3" cy="96" cx="170.1995737260221"></circle><circle data-tooltip="Úsvit5 %6.9.2014" style="stroke: pink; stroke-width: 3px; fill: none;" r="3" cy="98.18181818181817" cx="221.81747723309437"></circle><circle data-tooltip="Úsvit5,5 %1.11.2014" style="stroke: pink; stroke-width: 3px; fill: none;" r="3" cy="96" cx="300"></circle><circle data-tooltip="Zelení3 %31.3.2014" style="stroke: green; stroke-width: 3px; fill: none;" r="3" cy="106.9090909090909" cx="0"></circle><circle data-tooltip="Zelení3,5 %8.5.2014" style="stroke: green; stroke-width: 3px; fill: none;" r="3" cy="104.72727272727272" cx="53.01298198023639"></circle><circle data-tooltip="Zelení3,5 %2.6.2014" style="stroke: green; stroke-width: 3px; fill: none;" r="3" cy="104.72727272727272" cx="87.88994380933927"></circle><circle data-tooltip="Zelení2 %30.6.2014" style="stroke: green; stroke-width: 3px; fill: none;" r="3" cy="111.27272727272727" cx="126.9521410579345"></circle><circle data-tooltip="Zelení2,5 %31.7.2014" style="stroke: green; stroke-width: 3px; fill: none;" r="3" cy="109.0909090909091" cx="170.1995737260221"></circle><circle data-tooltip="Zelení2,5 %6.9.2014" style="stroke: green; stroke-width: 3px; fill: none;" r="3" cy="109.0909090909091" cx="221.81747723309437"></circle><circle data-tooltip="Zelení2 %1.11.2014" style="stroke: green; stroke-width: 3px; fill: none;" r="3" cy="111.27272727272727" cx="300"></circle><circle data-tooltip="Jiné3 %31.3.2014" style="stroke: rgb(136, 136, 136); stroke-width: 3px; fill: none;" r="3" cy="106.9090909090909" cx="0"></circle><circle data-tooltip="Jiné2,5 %8.5.2014" style="stroke: rgb(136, 136, 136); stroke-width: 3px; fill: none;" r="3" cy="109.0909090909091" cx="53.01298198023639"></circle><circle data-tooltip="Jiné3 %2.6.2014" style="stroke: rgb(136, 136, 136); stroke-width: 3px; fill: none;" r="3" cy="106.9090909090909" cx="87.88994380933927"></circle><circle data-tooltip="Jiné2 %30.6.2014" style="stroke: rgb(136, 136, 136); stroke-width: 3px; fill: none;" r="3" cy="111.27272727272727" cx="126.9521410579345"></circle><circle data-tooltip="Jiné1,5 %31.7.2014" style="stroke: rgb(136, 136, 136); stroke-width: 3px; fill: none;" r="3" cy="113.45454545454545" cx="170.1995737260221"></circle><circle data-tooltip="Jiné2,5 %6.9.2014" style="stroke: rgb(136, 136, 136); stroke-width: 3px; fill: none;" r="3" cy="109.0909090909091" cx="221.81747723309437"></circle><circle data-tooltip="Jiné2 %1.11.2014" style="stroke: rgb(136, 136, 136); stroke-width: 3px; fill: none;" r="3" cy="111.27272727272727" cx="300"></circle><circle data-tooltip="Piráti3,5 %31.3.2014" style="stroke: black; stroke-width: 3px; fill: none;" r="3" cy="104.72727272727272" cx="0"></circle><circle data-tooltip="Piráti3 %8.5.2014" style="stroke: black; stroke-width: 3px; fill: none;" r="3" cy="106.9090909090909" cx="53.01298198023639"></circle><circle data-tooltip="Piráti3,5 %2.6.2014" style="stroke: black; stroke-width: 3px; fill: none;" r="3" cy="104.72727272727272" cx="87.88994380933927"></circle><circle data-tooltip="Piráti3,5 %30.6.2014" style="stroke: black; stroke-width: 3px; fill: none;" r="3" cy="104.72727272727272" cx="126.9521410579345"></circle><circle data-tooltip="Piráti3,5 %31.7.2014" style="stroke: black; stroke-width: 3px; fill: none;" r="3" cy="104.72727272727272" cx="170.1995737260221"></circle><circle data-tooltip="Piráti2,5 %6.9.2014" style="stroke: black; stroke-width: 3px; fill: none;" r="3" cy="109.0909090909091" cx="221.81747723309437"></circle><circle data-tooltip="Piráti3 %1.11.2014" style="stroke: black; stroke-width: 3px; fill: none;" r="3" cy="106.9090909090909" cx="300"></circle></g></g></g></svg>