<svg width="400" height="150"><g><g width="400" height="150"><g transform="translate(50,15)"><g class="x axis" transform="translate(0,120)"><g class="tick" transform="translate(40.7459807073955,0)" style="opacity: 1;"><line y2="16" x2="0" stroke="#ccc" fill="none" shape-rendering="crispEdges"></line><text dy=".71em" y="6" x="6" font-size="10px" fill="#666" shape-rendering="crispEdges" style="text-anchor: start;">2014</text></g><path class="domain" d="M0,0V0H300V0" stroke="#ccc" fill="none" shape-rendering="crispEdges"></path></g><g class="y axis"><g class="tick" transform="translate(0,120)" style="opacity: 1;"><line x2="-6" y2="0" stroke="#ccc" fill="none" shape-rendering="crispEdges"></line><text dy=".32em" x="-9" y="0" font-size="10px" fill="#666" shape-rendering="crispEdges" style="text-anchor: end;">0%</text></g><g class="tick" transform="translate(0,103.47107438016528)" style="opacity: 1;"><line x2="-6" y2="0" stroke="#ccc" fill="none" shape-rendering="crispEdges"></line><text dy=".32em" x="-9" y="0" font-size="10px" fill="#666" shape-rendering="crispEdges" style="text-anchor: end;">5%</text></g><g class="tick" transform="translate(0,86.94214876033058)" style="opacity: 1;"><line x2="-6" y2="0" stroke="#ccc" fill="none" shape-rendering="crispEdges"></line><text dy=".32em" x="-9" y="0" font-size="10px" fill="#666" shape-rendering="crispEdges" style="text-anchor: end;">10%</text></g><g class="tick" transform="translate(0,70.41322314049587)" style="opacity: 1;"><line x2="-6" y2="0" stroke="#ccc" fill="none" shape-rendering="crispEdges"></line><text dy=".32em" x="-9" y="0" font-size="10px" fill="#666" shape-rendering="crispEdges" style="text-anchor: end;">15%</text></g><g class="tick" transform="translate(0,53.88429752066116)" style="opacity: 1;"><line x2="-6" y2="0" stroke="#ccc" fill="none" shape-rendering="crispEdges"></line><text dy=".32em" x="-9" y="0" font-size="10px" fill="#666" shape-rendering="crispEdges" style="text-anchor: end;">20%</text></g><g class="tick" transform="translate(0,37.35537190082645)" style="opacity: 1;"><line x2="-6" y2="0" stroke="#ccc" fill="none" shape-rendering="crispEdges"></line><text dy=".32em" x="-9" y="0" font-size="10px" fill="#666" shape-rendering="crispEdges" style="text-anchor: end;">25%</text></g><g class="tick" transform="translate(0,20.826446280991746)" style="opacity: 1;"><line x2="-6" y2="0" stroke="#ccc" fill="none" shape-rendering="crispEdges"></line><text dy=".32em" x="-9" y="0" font-size="10px" fill="#666" shape-rendering="crispEdges" style="text-anchor: end;">30%</text></g><g class="tick" transform="translate(0,4.297520661157042)" style="opacity: 1;"><line x2="-6" y2="0" stroke="#ccc" fill="none" shape-rendering="crispEdges"></line><text dy=".32em" x="-9" y="0" font-size="10px" fill="#666" shape-rendering="crispEdges" style="text-anchor: end;">35%</text></g><path class="domain" d="M-6,0H0V120H-6" stroke="#ccc" fill="none" shape-rendering="crispEdges"></path><text transform="rotate(-90)" y="6" dy=".71em" font-size="10px" fill="#666" shape-rendering="crispEdges" style="text-anchor: end;">Rate</text></g><g class="y axis" transform="translate(305,0)"><g class="tick" transform="translate(0,120)" style="opacity: 1;"><line x2="6" y2="0" stroke="#ccc" fill="none" shape-rendering="crispEdges"></line><text dy=".32em" x="9" y="0" font-size="10px" fill="#666" shape-rendering="crispEdges" style="text-anchor: start;">0%</text></g><g class="tick" transform="translate(0,103.47107438016528)" style="opacity: 1;"><line x2="6" y2="0" stroke="#ccc" fill="none" shape-rendering="crispEdges"></line><text dy=".32em" x="9" y="0" font-size="10px" fill="#666" shape-rendering="crispEdges" style="text-anchor: start;">5%</text></g><g class="tick" transform="translate(0,86.94214876033058)" style="opacity: 1;"><line x2="6" y2="0" stroke="#ccc" fill="none" shape-rendering="crispEdges"></line><text dy=".32em" x="9" y="0" font-size="10px" fill="#666" shape-rendering="crispEdges" style="text-anchor: start;">10%</text></g><g class="tick" transform="translate(0,70.41322314049587)" style="opacity: 1;"><line x2="6" y2="0" stroke="#ccc" fill="none" shape-rendering="crispEdges"></line><text dy=".32em" x="9" y="0" font-size="10px" fill="#666" shape-rendering="crispEdges" style="text-anchor: start;">15%</text></g><g class="tick" transform="translate(0,53.88429752066116)" style="opacity: 1;"><line x2="6" y2="0" stroke="#ccc" fill="none" shape-rendering="crispEdges"></line><text dy=".32em" x="9" y="0" font-size="10px" fill="#666" shape-rendering="crispEdges" style="text-anchor: start;">20%</text></g><g class="tick" transform="translate(0,37.35537190082645)" style="opacity: 1;"><line x2="6" y2="0" stroke="#ccc" fill="none" shape-rendering="crispEdges"></line><text dy=".32em" x="9" y="0" font-size="10px" fill="#666" shape-rendering="crispEdges" style="text-anchor: start;">25%</text></g><g class="tick" transform="translate(0,20.826446280991746)" style="opacity: 1;"><line x2="6" y2="0" stroke="#ccc" fill="none" shape-rendering="crispEdges"></line><text dy=".32em" x="9" y="0" font-size="10px" fill="#666" shape-rendering="crispEdges" style="text-anchor: start;">30%</text></g><g class="tick" transform="translate(0,4.297520661157042)" style="opacity: 1;"><line x2="6" y2="0" stroke="#ccc" fill="none" shape-rendering="crispEdges"></line><text dy=".32em" x="9" y="0" font-size="10px" fill="#666" shape-rendering="crispEdges" style="text-anchor: start;">35%</text></g><path class="domain" d="M6,0H0V120H6" stroke="#ccc" fill="none" shape-rendering="crispEdges"></path></g><path d="M0,106.91085941535381Q50.5620578778135,111.25386135637267,58.340836012861736,111.49873591651601C70.00900321543409,111.86604775673102,70.98135048231511,109.30296338294164,77.78778135048232,109.3596050167872S94.97170418006432,111.30275001210615,103.7170418006431,111.87634680881973S127.34469453376205,113.19997992397342,136.09003215434083,113.18358366154443S154.24051446945336,112.00336929195183,162.0192926045016,111.76703839262655S170.44630225080385,111.74070500145272,187.94855305466237,111.60804433270918S261.89324758842446,111.17392673965327,278.7009646302251,110.88263393433625Q289.90610932475886,110.68843873079157,300,109.6660922972624L300,117.34633264462809Q289.90610932475886,117.66448217975207,278.7009646302251,117.75794163223141C261.89324758842446,117.89813081095042,205.45080385852089,118.1574444731405,187.94855305466237,118.28092716942149S169.79807073954984,118.50246965392562,162.0192926045016,118.58115960743801S144.8353697749196,118.8215069731405,136.09003215434083,118.80552685950414S112.46237942122188,118.75161415289257,103.7170418006431,118.47462551652893S84.59421221864953,117.0257618801653,77.78778135048232,116.95893595041323S70.00900321543409,118.20066341683884,58.340836012861736,118.02911931818181Q50.5620578778135,117.91475658574379,0,115.81530862603304Z" class="area band" id="pirati-band" title="pirati" style="fill: rgb(0, 0, 0); fill-opacity: 0.2;"></path><path d="M0,113.88271363313532Q119.88810289389068,113.1626097623967,136.09003215434083,113.18358366154443C160.39292604501608,113.21504451026603,154.24051446945336,114.32878352393789,162.0192926045016,114.0924526246126S167.2514469453376,111.99412070030023,187.94855305466237,111.60804433270918Q201.7466237942122,111.35066008764849,300,111.51861017400569L300,118.22281766528926Q201.7466237942122,118.14001162190083,187.94855305466237,118.28092716942149C167.2514469453376,118.49230049070248,169.79807073954984,119.55328318698348,162.0192926045016,119.63197314049587S160.39292604501608,118.82489669421489,136.09003215434083,118.80552685950414Q119.88810289389068,118.79261363636364,0,119.5028409090909Z" class="area band" id="svobodni-band" title="svobodni" style="fill: rgb(0, 102, 0); fill-opacity: 0.2;"></path><path d="M0,113.88271363313532Q50.5620578778135,108.73364661350723,58.340836012861736,108.74663045583678C70.00900321543409,108.7661062193311,70.98135048231511,113.26760788594396,77.78778135048232,114.01255205643079S94.97170418006432,113.83727018498193,103.7170418006431,113.71292492574898S127.34469453376205,113.12665450671489,136.09003215434083,113.18358366154443S154.24051446945336,114.04001787674329,162.0192926045016,114.0924526246126Q167.20514469453374,114.12740912319215,187.94855305466237,113.53314864733987L187.94855305466237,119.05087809917356Q167.20514469453374,119.65650826446281,162.0192926045016,119.63197314049587C154.24051446945336,119.59517045454545,144.8353697749196,118.87525826446281,136.09003215434083,118.80552685950414S112.46237942122188,119.08380681818181,103.7170418006431,119.16709710743801S84.59421221864953,119.78499483471074,77.78778135048232,119.36079545454545S70.00900321543409,116.3177944214876,58.340836012861736,116.33910123966942Q50.5620578778135,116.35330578512396,0,119.5028409090909Z" class="area band" id="ostatni-strany-band" title="ostatni-strany" style="fill: rgb(136, 136, 136); fill-opacity: 0.2;"></path><path d="M0,26.337744342394224Q50.5620578778135,25.368291681463088,58.340836012861736,25.24544203576964C70.00900321543409,25.06116756722946,70.98135048231511,26.729027614120618,77.78778135048232,25.109247885459716S94.97170418006432,17.1046258595364,103.7170418006431,14.446910511363633S127.34469453376205,10.034257873030802,136.09003215434083,7.391145564307919S154.24051446945336,-3.7311673755488024,162.0192926045016,-3.173838213455582S170.44630225080385,8.374217640269876,187.94855305466237,11.106673311596055S261.89324758842446,15.931199759491149,278.7009646302251,15.042532928718938Q289.90610932475886,14.450088374870797,300,5.1822277731146515L300,30.6871045325413Q289.90610932475886,39.6027166193182,278.7009646302251,40.143821022727295C261.89324758842446,40.955477627840935,205.45080385852089,38.60519535285382,187.94855305466237,36.09814856663222S169.79807073954984,23.909548924974146,162.0192926045016,23.43017578124996S144.8353697749196,30.56137715489401,136.09003215434083,32.90232760847099S112.46237942122188,36.6820179332387,103.7170418006431,39.03651213842983S84.59421221864953,47.181235069085766,77.78778135048232,48.598955643078526S70.00900321543409,48.15365625807077,58.340836012861736,48.487982631714885Q50.5620578778135,48.71086688081096,0,50.827798134039305Z" class="area band" id="ano-band" title="ano" style="fill: rgb(0, 187, 187); fill-opacity: 0.2;"></path><path d="M0,100.42839617768595Q50.5620578778135,98.29162345444861,58.340836012861736,96.96830812564566C70.00900321543409,94.98333513244124,70.98135048231511,87.71355999402765,77.78778135048232,87.19524288965651S94.97170418006432,92.58940011016593,103.7170418006431,93.51286076317147S127.34469453376205,92.79882762057719,136.09003215434083,93.35164724302683S154.24051446945336,97.79168499402763,162.0192926045016,97.19832491283574S170.44630225080385,90.89777544510267,187.94855305466237,89.39591336841427S261.89324758842446,86.32574286342654,278.7009646302251,87.1859110682464Q289.90610932475886,87.7593565381263,300,95.13036806721333L300,107.72638494318181Q289.90610932475886,102.37106953770662,278.7009646302251,101.94368220557851C261.89324758842446,101.30260120738636,205.45080385852089,102.31725771565081,187.94855305466237,103.45251162190081S169.79807073954984,109.0455917484504,162.0192926045016,109.51204158057851S144.8353697749196,107.01192051911157,136.09003215434083,106.56217716942149S112.46237942122188,107.27008409736571,103.7170418006431,106.51375258264463S84.59421221864953,101.19249580320246,77.78778135048232,101.51996707128097S70.00900321543409,107.17908622804754,58.340836012861736,108.69689436983472Q50.5620578778135,109.70876646435951,0,111.63868801652892Z" class="area band" id="ods-band" title="ods" style="fill: rgb(0, 0, 255); fill-opacity: 0.2;"></path><path d="M0,104.71513227982956Q50.5620578778135,111.03428864282024,58.340836012861736,111.49873591651601C70.00900321543409,112.19540682705966,70.98135048231511,110.7027063290935,77.78778135048232,109.3596050167872S94.97170418006432,102.86334959928655,103.7170418006431,102.54472716780734S127.34469453376205,106.50676380504261,136.09003215434083,107.23545547359245S154.24051446945336,106.7467832959388,162.0192926045016,107.4026716248063S170.44630225080385,110.76637583330643,187.94855305466237,111.60804433270918Q199.61672025723473,112.16915666564437,278.7009646302251,113.01379495415806L278.7009646302251,118.70222107438018Q199.61672025723473,118.53168582128099,187.94855305466237,118.28092716942149C170.44630225080385,117.90478919163223,169.79807073954984,116.54994996126034,162.0192926045016,116.19463455578513S144.8353697749196,116.44047004132231,136.09003215434083,115.91215779958678S112.46237942122188,112.5155362215909,103.7170418006431,112.67255294421487S84.59421221864953,116.15545099431819,77.78778135048232,116.95893595041323S70.00900321543409,118.40465198863636,58.340836012861736,118.02911931818181Q50.5620578778135,117.77876420454545,0,114.4553848140496Z" class="area band" id="zeleni-band" title="zeleni" style="fill: rgb(0, 128, 0); fill-opacity: 0.2;"></path><path d="M0,93.52234391141528Q50.5620578778135,95.821629043453,58.340836012861736,96.96830812564566C70.00900321543409,98.68832674893466,70.98135048231511,105.05095174489928,77.78778135048232,104.98913473334194S94.97170418006432,96.50041564436985,103.7170418006431,96.55619471526344S127.34469453376205,104.0490823540806,136.09003215434083,105.36099520596592S154.24051446945336,105.10521124217136,162.0192926045016,105.30228039449898S170.44630225080385,105.83773652384104,187.94855305466237,106.67478955481664S261.89324758842446,110.90476548376162,278.7009646302251,110.88263393433625Q289.90610932475886,110.86787956805269,300,106.5272458919809L300,115.22614282024793Q289.90610932475886,117.74664256198348,278.7009646302251,117.75794163223141C261.89324758842446,117.77489023760332,205.45080385852089,115.76478564049587,187.94855305466237,115.33913352272728S169.79807073954984,114.99761912448346,162.0192926045016,114.92026084710743S144.8353697749196,115.77870770919421,136.09003215434083,114.82341167355372S112.46237942122188,108.63442665289257,103.7170418006431,108.55162060950414S84.59421221864953,114.24958032024793,77.78778135048232,114.27137138429752S70.00900321543409,109.78499483471076,58.340836012861736,108.69689436983472Q50.5620578778135,107.97149405991736,0,107.01736828512398Z" class="area band" id="usvit-band" title="usvit" style="fill: rgb(255, 192, 203); fill-opacity: 0.2;"></path><path d="M0,28.198080772210787Q50.5620578778135,19.76678517239153,58.340836012861736,18.4781060337035C70.00900321543409,16.545087325671457,70.98135048231511,13.741735032767219,77.78778135048232,15.311289385330497S94.97170418006432,27.424439989830837,103.7170418006431,28.94180171745869S127.34469453376205,25.235813865976894,136.09003215434083,25.427034236182866S154.24051446945336,29.676738140011665,162.0192926045016,30.2166041854985S170.44630225080385,31.060647255133073,187.94855305466237,29.026141206095097S261.89324758842446,17.057632572394738,278.7009646302251,16.65323052524533Q289.90610932475886,16.38362916047906,300,26.330127558432395L300,50.07640996255175Q289.90610932475886,41.368852095170524,278.7009646302251,41.61421342329552C261.89324758842446,41.982255415483,205.45080385852089,50.641978870738654,187.94855305466237,52.53002324380165S169.79807073954984,54.65312863184395,162.0192926045016,54.201175910382176S144.8353697749196,49.79963822798295,136.09003215434083,49.51700510072315S112.46237942122188,53.79581167678205,103.7170418006431,52.31695506198349S84.59421221864953,41.160727256585744,77.78778135048232,39.65796100206611S70.00900321543409,40.36915676652888,58.340836012861736,42.29851336518591Q50.5620578778135,43.58475109762393,0,52.52033832644629Z" class="area band" id="cssd-band" title="cssd" style="fill: rgb(255, 165, 0); fill-opacity: 0.2;"></path><path d="M0,81.45761032735024Q50.5620578778135,72.0578129035382,58.340836012861736,71.44829868285122C70.00900321543409,70.53402735182074,70.98135048231511,74.82517463116606,77.78778135048232,75.36246812048037S94.97170418006432,74.80283752945829,103.7170418006431,75.03025527827997S127.34469453376205,75.87041681463072,136.09003215434083,76.87858644595819S154.24051446945336,82.32422631634171,162.0192926045016,81.7513861537965S170.44630225080385,73.29099670914579,187.94855305466237,73.05965202899019S261.89324758842446,79.41715335057788,278.7009646302251,80.20908828609247Q289.90610932475886,80.73704490976887,300,78.33921826575414L300,94.89588713842977Q289.90610932475886,97.03014026988642,278.7009646302251,96.60345912964881C261.89324758842446,95.9634374192924,205.45080385852089,90.42802290482956,187.94855305466237,90.62907573605374S169.79807073954984,97.45012267561985,162.0192926045016,97.94381133780993S144.8353697749196,94.79003906250001,136.09003215434083,93.92033348398762S112.46237942122188,92.3879878777118,103.7170418006431,92.1457741477273S84.59421221864953,92.79581369447317,77.78778135048232,92.30557528409093S70.00900321543409,88.05793194731406,58.340836012861736,88.87751807851241Q50.5620578778135,89.42390883264464,0,97.76948282541322Z" class="area band" id="top-09-band" title="top-09" style="fill: rgb(136, 0, 136); fill-opacity: 0.2;"></path><path d="M0,49.38999144498975Q50.5620578778135,60.95036278086261,58.340836012861736,62.0129444973528C70.00900321543409,63.60681707208808,70.98135048231511,59.72073263373263,77.78778135048232,60.01580860989159S94.97170418006432,63.11985110448414,103.7170418006431,63.98011767174588S127.34469453376205,65.04848637856726,136.09003215434083,65.75091905830318S154.24051446945336,69.73006067197186,162.0192926045016,68.6630022033187S170.44630225080385,59.40339774139653,187.94855305466237,58.637195933948824S261.89324758842446,62.16539745488438,278.7009646302251,63.554990153667305Q289.90610932475886,64.48138528618925,300,67.90114725916834L300,86.44135782541325Q289.90610932475886,83.75526617381203,278.7009646302251,82.96729726239674C261.89324758842446,81.7853438952738,205.45080385852089,77.89840319925104,187.94855305466237,78.56166871126032S169.79807073954984,86.45792306947314,162.0192926045016,87.38906734245867S144.8353697749196,85.43086784930269,136.09003215434083,84.76929719783058S112.46237942122188,83.78368535317671,103.7170418006431,82.97859633264467S84.59421221864953,79.71095565921999,77.78778135048232,79.40203706095036S70.00900321543409,82.13980178202485,58.340836012861736,80.91913901084716Q50.5620578778135,80.10536383006203,0,71.26428525309915Z" class="area band" id="kscm-band" title="kscm" style="fill: rgb(255, 0, 0); fill-opacity: 0.2;"></path><path d="M0,89.46158921423037Q50.5620578778135,91.39440363103695,58.340836012861736,91.97081510685695C70.00900321543409,92.83543232058693,70.98135048231511,94.99439712398309,77.78778135048232,95.22570397243027S94.97170418006432,94.05203070522339,103.7170418006431,93.51286076317147S127.34469453376205,92.82588738055271,136.09003215434083,91.63123769208423S154.24051446945336,84.97789871594138,162.0192926045016,85.54852950671489S170.44630225080385,94.65886770201125,187.94855305466237,95.43544296390756S261.89324758842446,91.92673360020665,278.7009646302251,90.72569791935695Q289.90610932475886,89.92500746545714,300,87.42853842490959L300,101.98000064566114Q289.90610932475886,103.96153473657024,278.7009646302251,104.56103112086777C261.89324758842446,105.46027569731405,205.45080385852089,108.52488620222107,187.94855305466237,107.97496448863636S169.79807073954984,101.29051523760329,162.0192926045016,100.89488636363635S144.8353697749196,104.49460872933885,136.09003215434083,105.3374386621901S112.46237942122188,106.17272243026859,103.7170418006431,106.51375258264463S84.59421221864953,107.81260088455578,77.78778135048232,107.61097301136363S70.00900321543409,105.71367752453511,58.340836012861736,105.16956676136363Q50.5620578778135,104.80682625258264,0,103.98356792355372Z" class="area band" id="kdu-csl-band" title="kdu-csl" style="fill: rgb(255, 255, 0); fill-opacity: 0.2;"></path><path d="M278.7009646302251,104.930419921875L300,106.5272458919809L300,115.22614282024793L278.7009646302251,114.4844395661157Z" class="area band" id="jine-strany-band" title="jine-strany" style="fill: rgb(136, 136, 136); fill-opacity: 0.2;"></path><circle cx="0" cy="111.73553719008264" r="3" style="stroke: rgb(0, 0, 0); stroke-width: 3px; fill: none;"></circle><circle cx="58.340836012861736" cy="115.0413223140496" r="3" style="stroke: rgb(0, 0, 0); stroke-width: 3px; fill: none;"></circle><circle cx="77.78778135048232" cy="113.38842975206612" r="3" style="stroke: rgb(0, 0, 0); stroke-width: 3px; fill: none;"></circle><circle cx="103.7170418006431" cy="115.0413223140496" r="3" style="stroke: rgb(0, 0, 0); stroke-width: 3px; fill: none;"></circle><circle cx="136.09003215434083" cy="116.69421487603306" r="3" style="stroke: rgb(0, 0, 0); stroke-width: 3px; fill: none;"></circle><circle cx="162.0192926045016" cy="115.0413223140496" r="3" style="stroke: rgb(0, 0, 0); stroke-width: 3px; fill: none;"></circle><circle cx="187.94855305466237" cy="115.0413223140496" r="3" style="stroke: rgb(0, 0, 0); stroke-width: 3px; fill: none;"></circle><circle cx="278.7009646302251" cy="115.0413223140496" r="3" style="stroke: rgb(0, 0, 0); stroke-width: 3px; fill: none;"></circle><circle cx="300" cy="113.38842975206612" r="3" style="stroke: rgb(0, 0, 0); stroke-width: 3px; fill: none;"></circle><circle cx="0" cy="116.69421487603306" r="3" style="stroke: rgb(0, 102, 0); stroke-width: 3px; fill: none;"></circle><circle cx="136.09003215434083" cy="116.69421487603306" r="3" style="stroke: rgb(0, 102, 0); stroke-width: 3px; fill: none;"></circle><circle cx="162.0192926045016" cy="116.69421487603306" r="3" style="stroke: rgb(0, 102, 0); stroke-width: 3px; fill: none;"></circle><circle cx="187.94855305466237" cy="115.0413223140496" r="3" style="stroke: rgb(0, 102, 0); stroke-width: 3px; fill: none;"></circle><circle cx="300" cy="115.0413223140496" r="3" style="stroke: rgb(0, 102, 0); stroke-width: 3px; fill: none;"></circle><circle cx="0" cy="116.69421487603306" r="3" style="stroke: rgb(136, 136, 136); stroke-width: 3px; fill: none;"></circle><circle cx="58.340836012861736" cy="113.38842975206612" r="3" style="stroke: rgb(136, 136, 136); stroke-width: 3px; fill: none;"></circle><circle cx="77.78778135048232" cy="116.69421487603306" r="3" style="stroke: rgb(136, 136, 136); stroke-width: 3px; fill: none;"></circle><circle cx="103.7170418006431" cy="116.69421487603306" r="3" style="stroke: rgb(136, 136, 136); stroke-width: 3px; fill: none;"></circle><circle cx="136.09003215434083" cy="116.69421487603306" r="3" style="stroke: rgb(136, 136, 136); stroke-width: 3px; fill: none;"></circle><circle cx="162.0192926045016" cy="116.69421487603306" r="3" style="stroke: rgb(136, 136, 136); stroke-width: 3px; fill: none;"></circle><circle cx="187.94855305466237" cy="116.69421487603306" r="3" style="stroke: rgb(136, 136, 136); stroke-width: 3px; fill: none;"></circle><circle cx="0" cy="39.008264462809926" r="3" style="stroke: rgb(0, 187, 187); stroke-width: 3px; fill: none;"></circle><circle cx="58.340836012861736" cy="37.35537190082645" r="3" style="stroke: rgb(0, 187, 187); stroke-width: 3px; fill: none;"></circle><circle cx="77.78778135048232" cy="37.35537190082645" r="3" style="stroke: rgb(0, 187, 187); stroke-width: 3px; fill: none;"></circle><circle cx="103.7170418006431" cy="27.438016528925615" r="3" style="stroke: rgb(0, 187, 187); stroke-width: 3px; fill: none;"></circle><circle cx="136.09003215434083" cy="20.826446280991746" r="3" style="stroke: rgb(0, 187, 187); stroke-width: 3px; fill: none;"></circle><circle cx="162.0192926045016" cy="10.909090909090914" r="3" style="stroke: rgb(0, 187, 187); stroke-width: 3px; fill: none;"></circle><circle cx="187.94855305466237" cy="24.132231404958695" r="3" style="stroke: rgb(0, 187, 187); stroke-width: 3px; fill: none;"></circle><circle cx="278.7009646302251" cy="27.438016528925615" r="3" style="stroke: rgb(0, 187, 187); stroke-width: 3px; fill: none;"></circle><circle cx="300" cy="17.52066115702481" r="3" style="stroke: rgb(0, 187, 187); stroke-width: 3px; fill: none;"></circle><circle cx="0" cy="106.77685950413223" r="3" style="stroke: rgb(0, 0, 255); stroke-width: 3px; fill: none;"></circle><circle cx="58.340836012861736" cy="103.47107438016528" r="3" style="stroke: rgb(0, 0, 255); stroke-width: 3px; fill: none;"></circle><circle cx="77.78778135048232" cy="95.20661157024793" r="3" style="stroke: rgb(0, 0, 255); stroke-width: 3px; fill: none;"></circle><circle cx="103.7170418006431" cy="100.16528925619835" r="3" style="stroke: rgb(0, 0, 255); stroke-width: 3px; fill: none;"></circle><circle cx="136.09003215434083" cy="100.16528925619835" r="3" style="stroke: rgb(0, 0, 255); stroke-width: 3px; fill: none;"></circle><circle cx="162.0192926045016" cy="103.47107438016528" r="3" style="stroke: rgb(0, 0, 255); stroke-width: 3px; fill: none;"></circle><circle cx="187.94855305466237" cy="96.85950413223141" r="3" style="stroke: rgb(0, 0, 255); stroke-width: 3px; fill: none;"></circle><circle cx="278.7009646302251" cy="95.20661157024793" r="3" style="stroke: rgb(0, 0, 255); stroke-width: 3px; fill: none;"></circle><circle cx="300" cy="101.81818181818183" r="3" style="stroke: rgb(0, 0, 255); stroke-width: 3px; fill: none;"></circle><circle cx="0" cy="110.08264462809917" r="3" style="stroke: rgb(0, 128, 0); stroke-width: 3px; fill: none;"></circle><circle cx="58.340836012861736" cy="115.0413223140496" r="3" style="stroke: rgb(0, 128, 0); stroke-width: 3px; fill: none;"></circle><circle cx="77.78778135048232" cy="113.38842975206612" r="3" style="stroke: rgb(0, 128, 0); stroke-width: 3px; fill: none;"></circle><circle cx="103.7170418006431" cy="108.42975206611571" r="3" style="stroke: rgb(0, 128, 0); stroke-width: 3px; fill: none;"></circle><circle cx="136.09003215434083" cy="111.73553719008264" r="3" style="stroke: rgb(0, 128, 0); stroke-width: 3px; fill: none;"></circle><circle cx="162.0192926045016" cy="111.73553719008264" r="3" style="stroke: rgb(0, 128, 0); stroke-width: 3px; fill: none;"></circle><circle cx="187.94855305466237" cy="115.0413223140496" r="3" style="stroke: rgb(0, 128, 0); stroke-width: 3px; fill: none;"></circle><circle cx="278.7009646302251" cy="116.69421487603306" r="3" style="stroke: rgb(0, 128, 0); stroke-width: 3px; fill: none;"></circle><circle cx="0" cy="100.16528925619835" r="3" style="stroke: rgb(255, 192, 203); stroke-width: 3px; fill: none;"></circle><circle cx="58.340836012861736" cy="103.47107438016528" r="3" style="stroke: rgb(255, 192, 203); stroke-width: 3px; fill: none;"></circle><circle cx="77.78778135048232" cy="110.08264462809917" r="3" style="stroke: rgb(255, 192, 203); stroke-width: 3px; fill: none;"></circle><circle cx="103.7170418006431" cy="103.47107438016528" r="3" style="stroke: rgb(255, 192, 203); stroke-width: 3px; fill: none;"></circle><circle cx="136.09003215434083" cy="110.08264462809917" r="3" style="stroke: rgb(255, 192, 203); stroke-width: 3px; fill: none;"></circle><circle cx="162.0192926045016" cy="110.08264462809917" r="3" style="stroke: rgb(255, 192, 203); stroke-width: 3px; fill: none;"></circle><circle cx="187.94855305466237" cy="111.73553719008264" r="3" style="stroke: rgb(255, 192, 203); stroke-width: 3px; fill: none;"></circle><circle cx="278.7009646302251" cy="115.0413223140496" r="3" style="stroke: rgb(255, 192, 203); stroke-width: 3px; fill: none;"></circle><circle cx="300" cy="111.73553719008264" r="3" style="stroke: rgb(255, 192, 203); stroke-width: 3px; fill: none;"></circle><circle cx="0" cy="40.6611570247934" r="3" style="stroke: rgb(255, 165, 0); stroke-width: 3px; fill: none;"></circle><circle cx="58.340836012861736" cy="30.743801652892564" r="3" style="stroke: rgb(255, 165, 0); stroke-width: 3px; fill: none;"></circle><circle cx="77.78778135048232" cy="27.438016528925615" r="3" style="stroke: rgb(255, 165, 0); stroke-width: 3px; fill: none;"></circle><circle cx="103.7170418006431" cy="40.6611570247934" r="3" style="stroke: rgb(255, 165, 0); stroke-width: 3px; fill: none;"></circle><circle cx="136.09003215434083" cy="37.35537190082645" r="3" style="stroke: rgb(255, 165, 0); stroke-width: 3px; fill: none;"></circle><circle cx="162.0192926045016" cy="42.314049586776875" r="3" style="stroke: rgb(255, 165, 0); stroke-width: 3px; fill: none;"></circle><circle cx="187.94855305466237" cy="40.6611570247934" r="3" style="stroke: rgb(255, 165, 0); stroke-width: 3px; fill: none;"></circle><circle cx="278.7009646302251" cy="29.090909090909093" r="3" style="stroke: rgb(255, 165, 0); stroke-width: 3px; fill: none;"></circle><circle cx="300" cy="39.008264462809926" r="3" style="stroke: rgb(255, 165, 0); stroke-width: 3px; fill: none;"></circle><circle cx="0" cy="90.24793388429752" r="3" style="stroke: rgb(136, 0, 136); stroke-width: 3px; fill: none;"></circle><circle cx="58.340836012861736" cy="80.3305785123967" r="3" style="stroke: rgb(136, 0, 136); stroke-width: 3px; fill: none;"></circle><circle cx="77.78778135048232" cy="83.63636363636364" r="3" style="stroke: rgb(136, 0, 136); stroke-width: 3px; fill: none;"></circle><circle cx="103.7170418006431" cy="83.63636363636364" r="3" style="stroke: rgb(136, 0, 136); stroke-width: 3px; fill: none;"></circle><circle cx="136.09003215434083" cy="85.28925619834712" r="3" style="stroke: rgb(136, 0, 136); stroke-width: 3px; fill: none;"></circle><circle cx="162.0192926045016" cy="90.24793388429752" r="3" style="stroke: rgb(136, 0, 136); stroke-width: 3px; fill: none;"></circle><circle cx="187.94855305466237" cy="81.98347107438016" r="3" style="stroke: rgb(136, 0, 136); stroke-width: 3px; fill: none;"></circle><circle cx="278.7009646302251" cy="88.59504132231405" r="3" style="stroke: rgb(136, 0, 136); stroke-width: 3px; fill: none;"></circle><circle cx="300" cy="86.94214876033058" r="3" style="stroke: rgb(136, 0, 136); stroke-width: 3px; fill: none;"></circle><circle cx="0" cy="60.495867768595055" r="3" style="stroke: rgb(255, 0, 0); stroke-width: 3px; fill: none;"></circle><circle cx="58.340836012861736" cy="72.06611570247935" r="3" style="stroke: rgb(255, 0, 0); stroke-width: 3px; fill: none;"></circle><circle cx="77.78778135048232" cy="70.41322314049587" r="3" style="stroke: rgb(255, 0, 0); stroke-width: 3px; fill: none;"></circle><circle cx="103.7170418006431" cy="73.71900826446281" r="3" style="stroke: rgb(255, 0, 0); stroke-width: 3px; fill: none;"></circle><circle cx="136.09003215434083" cy="75.37190082644628" r="3" style="stroke: rgb(255, 0, 0); stroke-width: 3px; fill: none;"></circle><circle cx="162.0192926045016" cy="78.67768595041322" r="3" style="stroke: rgb(255, 0, 0); stroke-width: 3px; fill: none;"></circle><circle cx="187.94855305466237" cy="68.7603305785124" r="3" style="stroke: rgb(255, 0, 0); stroke-width: 3px; fill: none;"></circle><circle cx="278.7009646302251" cy="73.71900826446281" r="3" style="stroke: rgb(255, 0, 0); stroke-width: 3px; fill: none;"></circle><circle cx="300" cy="77.02479338842976" r="3" style="stroke: rgb(255, 0, 0); stroke-width: 3px; fill: none;"></circle><circle cx="0" cy="96.85950413223141" r="3" style="stroke: rgb(255, 255, 0); stroke-width: 3px; fill: none;"></circle><circle cx="58.340836012861736" cy="98.51239669421489" r="3" style="stroke: rgb(255, 255, 0); stroke-width: 3px; fill: none;"></circle><circle cx="77.78778135048232" cy="101.81818181818183" r="3" style="stroke: rgb(255, 255, 0); stroke-width: 3px; fill: none;"></circle><circle cx="103.7170418006431" cy="100.16528925619835" r="3" style="stroke: rgb(255, 255, 0); stroke-width: 3px; fill: none;"></circle><circle cx="136.09003215434083" cy="98.51239669421489" r="3" style="stroke: rgb(255, 255, 0); stroke-width: 3px; fill: none;"></circle><circle cx="162.0192926045016" cy="93.55371900826447" r="3" style="stroke: rgb(255, 255, 0); stroke-width: 3px; fill: none;"></circle><circle cx="187.94855305466237" cy="101.81818181818183" r="3" style="stroke: rgb(255, 255, 0); stroke-width: 3px; fill: none;"></circle><circle cx="278.7009646302251" cy="98.51239669421489" r="3" style="stroke: rgb(255, 255, 0); stroke-width: 3px; fill: none;"></circle><circle cx="300" cy="95.20661157024793" r="3" style="stroke: rgb(255, 255, 0); stroke-width: 3px; fill: none;"></circle><circle cx="278.7009646302251" cy="110.08264462809917" r="3" style="stroke: rgb(136, 136, 136); stroke-width: 3px; fill: none;"></circle><circle cx="300" cy="111.73553719008264" r="3" style="stroke: rgb(136, 136, 136); stroke-width: 3px; fill: none;"></circle></g></g></g></svg>